<svg xmlns="http://www.w3.org/2000/svg" xmlns:xlink="http://www.w3.org/1999/xlink" width="500" zoomAndPan="magnify" viewBox="0 0 375 374.999991" height="500" preserveAspectRatio="xMidYMid meet" version="1.0"><path fill="#ea596e" d="M 302.5625 277.609375 C 302.589844 280.441406 301.859375 284.140625 301.101562 287.191406 C 295.785156 308.640625 272.191406 332.710938 238.984375 330.519531 C 208.886719 328.539062 184.371094 314.101562 184.371094 293.851562 C 184.371094 273.601562 208.824219 257.179688 238.984375 257.179688 C 269.140625 257.179688 302.371094 257.359375 302.5625 277.609375 Z M 302.5625 277.609375 " fill-opacity="1" fill-rule="nonzero"/><path fill="#dd2e44" d="M 238.984375 260.582031 C 222.785156 260.582031 185.8125 265.058594 177.328125 265.058594 C 162.335938 265.058594 150.179688 274.460938 150.179688 286.058594 C 150.179688 291.640625 153.042969 296.679688 157.625 300.441406 C 157.625 300.441406 167.691406 310.53125 185.820312 305.691406 C 193.757812 303.570312 206.664062 287.832031 229.386719 285.332031 C 240.703125 284.082031 261.90625 292.832031 299.167969 293.039062 C 300.769531 289.601562 301.101562 287.210938 301.101562 287.210938 C 301.101562 266.941406 269.140625 260.582031 238.984375 260.582031 Z M 238.984375 260.582031 " fill-opacity="1" fill-rule="nonzero"/><path fill="#f4abba" d="M 301.101562 287.191406 C 301.101562 287.191406 322.953125 282.761719 336.542969 264.898438 C 352.378906 244.070312 350.300781 221.78125 350.300781 221.78125 C 366.347656 191.78125 345.296875 163.648438 345.296875 163.648438 C 343.207031 131.980469 323.613281 118.859375 323.613281 118.859375 C 310.894531 88.648438 282.757812 80.53125 282.757812 80.53125 C 260.664062 54.699219 221.472656 55.53125 221.472656 55.53125 C 221.472656 55.53125 184.75 42.082031 134.339844 57.199219 C 126.003906 59.699219 98.070312 65.53125 77.636719 78.03125 C 13.238281 117.429688 8.367188 178.871094 9.265625 188.859375 C 14.257812 244.691406 53.453125 254.691406 78.46875 260.519531 C 84.300781 276.351562 105.773438 305.519531 144.335938 294.691406 C 191.863281 286.359375 211.875 272.191406 223.554688 272.191406 C 235.230469 272.191406 267.75 284.691406 301.101562 287.191406 Z M 301.101562 287.191406 " fill-opacity="1" fill-rule="nonzero"/><path fill="#ea596e" d="M 180.898438 197.421875 C 204.191406 184.871094 216.820312 186.039062 227.964844 187.050781 C 231.507812 187.371094 234.859375 187.621094 238.253906 187.601562 C 258.105469 187.148438 274.183594 178.789062 281.296875 170.699219 C 283.121094 168.621094 282.910156 165.46875 280.839844 163.640625 C 278.777344 161.820312 275.625 162.011719 273.773438 164.089844 C 268.289062 170.332031 254.773438 177.21875 238.023438 177.601562 C 235.019531 177.691406 232.007812 177.390625 228.886719 177.101562 C 216.929688 175.988281 202.082031 174.628906 176.144531 188.621094 C 169.492188 192.210938 160.367188 193.539062 150.480469 194.539062 C 128.496094 162.832031 141.726562 135.210938 145.507812 128.628906 C 145.878906 128.648438 146.238281 128.769531 146.617188 128.769531 C 150.621094 128.769531 154.644531 127.789062 158.285156 125.730469 C 160.6875 124.371094 161.535156 121.320312 160.175781 118.921875 C 158.816406 116.519531 155.761719 115.671875 153.363281 117.03125 C 146.957031 120.648438 138.53125 118.558594 134.550781 112.359375 C 133.058594 110.03125 129.96875 109.351562 127.648438 110.851562 C 125.324219 112.339844 124.644531 115.429688 126.136719 117.75 C 128.507812 121.460938 131.847656 124.25 135.621094 126.121094 C 130.410156 136.699219 120.511719 164.519531 139.34375 195.628906 C 126.09375 196.929688 112.828125 198.800781 102.441406 205.488281 C 95.738281 209.808594 88.882812 216.128906 83.648438 223.398438 C 77.355469 222.320312 54.3125 216.648438 50.289062 191.089844 C 52.792969 189.148438 54.8125 186.589844 56.0625 183.429688 C 57.085938 180.859375 55.824219 177.960938 53.253906 176.941406 C 50.679688 175.921875 47.777344 177.179688 46.757812 179.75 C 45.867188 182 44.257812 183.640625 42.214844 184.359375 C 40.195312 185.082031 37.902344 184.839844 35.78125 183.660156 C 33.351562 182.308594 30.320312 183.199219 28.976562 185.601562 C 27.636719 188.011719 28.507812 191.058594 30.917969 192.398438 C 33.761719 193.980469 36.800781 194.78125 39.824219 194.78125 C 40.195312 194.78125 40.542969 194.609375 40.914062 194.589844 C 45.675781 218.71875 64.757812 229.320312 78.257812 232.53125 C 76.496094 236.410156 75.304688 240.410156 74.945312 244.449219 C 74.703125 247.191406 76.734375 249.628906 79.488281 249.871094 L 79.9375 249.890625 C 82.5 249.890625 84.691406 247.941406 84.921875 245.332031 C 86 233.199219 97.578125 220.53125 107.863281 213.878906 C 117.511719 207.671875 131.628906 206.359375 145.296875 205.089844 C 158.554688 203.878906 171.082031 202.71875 180.898438 197.421875 Z M 309.636719 182.378906 C 308.324219 184.800781 309.226562 187.839844 311.636719 189.148438 C 312.398438 189.570312 313.226562 189.769531 314.039062 189.769531 C 315.800781 189.769531 317.511719 188.839844 318.421875 187.179688 C 318.609375 186.839844 336.851562 152.691406 302.699219 129.738281 C 300.417969 128.21875 297.308594 128.808594 295.757812 131.101562 C 294.214844 133.390625 294.828125 136.5 297.117188 138.039062 C 323.574219 155.820312 310.214844 181.300781 309.636719 182.378906 Z M 102.242188 101.640625 C 103.800781 101.640625 105.332031 100.921875 106.304688 99.558594 C 120.8125 79.390625 140.90625 86.289062 141.753906 86.609375 C 144.347656 87.550781 147.199219 86.230469 148.160156 83.648438 C 149.121094 81.058594 147.796875 78.191406 145.207031 77.230469 C 135.601562 73.671875 113.417969 72.550781 98.179688 93.730469 C 96.566406 95.960938 97.078125 99.089844 99.320312 100.699219 C 100.210938 101.339844 101.230469 101.640625 102.242188 101.640625 Z M 233.039062 82.761719 C 255.304688 80.949219 265.429688 97.082031 265.890625 97.839844 C 266.828125 99.421875 268.492188 100.300781 270.203125 100.300781 C 271.0625 100.300781 271.941406 100.082031 272.734375 99.609375 C 275.113281 98.210938 275.914062 95.148438 274.523438 92.769531 C 273.984375 91.859375 261.117188 70.589844 232.257812 72.789062 C 229.507812 73 227.457031 75.410156 227.667969 78.171875 C 227.886719 80.921875 230.378906 83.011719 233.039062 82.761719 Z M 324.59375 228.871094 C 322.132812 228.730469 319.421875 230.679688 319.199219 233.441406 C 319.179688 233.621094 317.589844 250.628906 300.089844 256.378906 C 297.46875 257.238281 296.035156 260.058594 296.90625 262.691406 C 297.589844 264.789062 299.558594 266.128906 301.660156 266.128906 C 302.179688 266.128906 302.699219 266.050781 303.222656 265.878906 C 326.957031 258.101562 329.097656 235.238281 329.175781 234.269531 C 329.386719 231.511719 327.347656 229.089844 324.59375 228.871094 Z M 324.59375 228.871094 " fill-opacity="1" fill-rule="nonzero"/><path fill="#ea596e" d="M 76.9375 180.28125 C 76.214844 182.949219 77.796875 185.691406 80.46875 186.410156 C 80.898438 186.53125 81.339844 186.582031 81.769531 186.582031 C 83.980469 186.582031 85.992188 185.109375 86.59375 182.878906 C 88.492188 175.769531 95.867188 171.210938 103.121094 172.738281 C 105.832031 173.289062 108.476562 171.582031 109.046875 168.871094 C 109.617188 166.171875 107.886719 163.519531 105.171875 162.949219 C 100.910156 162.050781 96.628906 162.46875 92.6875 163.808594 C 81.019531 143.871094 83.289062 124.210938 83.320312 124 C 83.679688 121.269531 81.757812 118.761719 79.027344 118.378906 C 76.304688 118.050781 73.785156 119.921875 73.402344 122.648438 C 73.273438 123.621094 70.601562 145.808594 84.039062 168.789062 C 80.699219 171.800781 78.15625 175.730469 76.9375 180.28125 Z M 188.792969 155.582031 C 192.867188 151.808594 199.398438 151.878906 203.351562 155.730469 C 204.332031 156.671875 205.582031 157.140625 206.84375 157.140625 C 208.15625 157.140625 209.457031 156.628906 210.425781 155.621094 C 212.347656 153.640625 212.308594 150.46875 210.324219 148.550781 C 208.023438 146.320312 205.273438 144.832031 202.351562 143.898438 C 205.3125 133.738281 204.140625 129.230469 201.390625 120.78125 C 200.910156 119.308594 200.378906 117.671875 199.820312 115.800781 L 199.519531 114.800781 C 195.878906 102.71875 193.464844 94.75 200.390625 83.5 C 201.839844 81.148438 201.101562 78.070312 198.75 76.621094 C 196.4375 75.179688 193.324219 75.890625 191.863281 78.261719 C 182.578125 93.339844 185.992188 104.628906 189.945312 117.699219 L 190.242188 118.699219 C 190.835938 120.640625 191.375 122.339844 191.875 123.871094 C 194.347656 131.480469 195.097656 134.03125 192.074219 143.230469 C 188.382812 143.921875 184.851562 145.589844 181.96875 148.269531 C 179.949219 150.148438 179.835938 153.320312 181.71875 155.339844 C 183.609375 157.359375 186.78125 157.460938 188.792969 155.582031 Z M 252.480469 125.730469 C 255.394531 125.730469 258.335938 125.121094 261.078125 123.820312 C 263.578125 122.640625 264.648438 119.660156 263.46875 117.160156 C 262.296875 114.660156 259.273438 113.621094 256.8125 114.769531 C 251.789062 117.128906 245.597656 115.082031 242.964844 110.199219 C 241.65625 107.761719 238.601562 106.871094 236.191406 108.148438 C 233.761719 109.449219 232.839844 112.488281 234.148438 114.921875 C 235.953125 118.28125 238.632812 120.929688 241.753906 122.769531 C 236.382812 135.820312 239.433594 149.679688 241.925781 157.03125 C 242.625 159.121094 244.578125 160.429688 246.667969 160.429688 C 247.199219 160.429688 247.726562 160.351562 248.269531 160.171875 C 250.890625 159.289062 252.289062 156.449219 251.402344 153.839844 C 249.71875 148.859375 246.457031 136.28125 251.378906 125.582031 C 251.761719 125.601562 252.109375 125.730469 252.480469 125.730469 Z M 300.480469 220.019531 C 300.289062 217.269531 297.910156 215.101562 295.167969 215.351562 C 285.019531 216.070312 276.375 208.378906 275.683594 198.320312 C 275.484375 195.570312 273.035156 193.519531 270.351562 193.671875 C 267.601562 193.859375 265.519531 196.25 265.699219 199 C 266.109375 204.898438 268.359375 210.21875 271.78125 214.550781 C 263.738281 224.011719 253.203125 226.699219 247.328125 227.390625 C 242.136719 228.011719 237.59375 227.480469 232.339844 226.859375 C 227.527344 226.308594 222.082031 225.679688 215.347656 225.878906 L 215.300781 225.890625 C 215.097656 223.03125 214.417969 218.859375 212.246094 215.390625 C 210.785156 213.058594 207.695312 212.351562 205.351562 213.808594 C 203.023438 215.269531 202.300781 218.359375 203.773438 220.699219 C 205.113281 222.851562 205.363281 226.28125 205.363281 227.949219 C 200.320312 229.761719 195.957031 232.421875 192.015625 234.988281 C 184.972656 239.570312 179.417969 243.191406 171.0625 241.308594 C 163.496094 239.582031 155.921875 239.230469 149.5 240.128906 C 148.5 237.621094 146.917969 234.621094 144.476562 232.308594 C 142.464844 230.410156 139.304688 230.488281 137.402344 232.511719 C 135.511719 234.511719 135.589844 237.679688 137.601562 239.582031 C 138.464844 240.390625 139.144531 241.570312 139.695312 242.75 C 128.65625 247.289062 123.125 254.878906 122.863281 255.25 C 121.261719 257.488281 121.792969 260.582031 124.015625 262.191406 C 124.894531 262.820312 125.914062 263.128906 126.9375 263.128906 C 128.488281 263.128906 130.019531 262.421875 131 261.082031 C 131.046875 261 136.542969 253.648438 147.378906 250.679688 C 152.980469 249.140625 161.015625 249.269531 168.851562 251.050781 C 171.042969 251.550781 173.074219 251.71875 175.042969 251.75 C 175.976562 253.929688 176.335938 256.519531 176.386719 257.480469 C 176.546875 260.140625 178.746094 262.199219 181.378906 262.199219 L 181.648438 262.191406 C 184.402344 262.039062 186.511719 259.710938 186.382812 256.960938 C 186.351562 256.460938 186.152344 253.5 185.082031 250.101562 C 189.695312 248.429688 193.707031 245.820312 197.476562 243.371094 C 203.203125 239.640625 208.613281 236.109375 215.6875 235.878906 C 221.613281 235.671875 226.496094 236.238281 231.207031 236.789062 C 235.953125 237.339844 240.613281 237.699219 245.757812 237.398438 C 246.667969 239.929688 246.597656 243.308594 246.457031 244.441406 C 246.128906 247.171875 248.058594 249.671875 250.800781 250.03125 C 251.011719 250.058594 251.21875 250.070312 251.429688 250.070312 C 253.902344 250.070312 256.054688 248.238281 256.382812 245.71875 C 256.464844 245.101562 256.972656 240.601562 255.792969 235.910156 C 262.976562 233.980469 271.882812 229.789062 279.257812 221.199219 C 283.570312 223.839844 288.601562 225.390625 293.957031 225.390625 C 294.578125 225.390625 295.207031 225.371094 295.828125 225.332031 C 298.578125 225.148438 300.660156 222.78125 300.480469 220.019531 Z M 300.480469 220.019531 " fill-opacity="1" fill-rule="nonzero"/></svg>