
<svg xmlns="http://www.w3.org/2000/svg" xmlns:xlink="http://www.w3.org/1999/xlink" width="500" zoomAndPan="magnify" viewBox="0 0 375 374.999991" height="500" preserveAspectRatio="xMidYMid meet" version="1.0"><defs><clipPath id="d9de638d0f"><path d="M 101.363281 300.269531 L 274.355469 300.269531 L 274.355469 374.964844 L 101.363281 374.964844 Z M 101.363281 300.269531 " clip-rule="nonzero"/></clipPath></defs><path fill="#d7b397" d="M 197.753906 87.714844 C 196.554688 88.699219 196.710938 88.570312 196.09375 90.667969 C 195.472656 92.765625 194.75 93.730469 194.75 93.730469 C 194.75 93.730469 194.664062 94.058594 194.351562 94.316406 C 194.226562 94.425781 194.050781 94.511719 193.84375 94.566406 C 193.628906 94.621094 193.4375 94.628906 193.277344 94.59375 C 192.878906 94.523438 192.648438 94.273438 192.648438 94.273438 C 192.648438 94.273438 191.550781 93.773438 189.988281 92.238281 C 188.433594 90.703125 188.636719 90.742188 187.105469 90.457031 C 186.058594 90.261719 185.335938 90.292969 185.292969 89.671875 C 185.277344 89.515625 185.304688 89.320312 185.378906 89.070312 C 185.394531 89.015625 185.414062 88.960938 185.433594 88.902344 C 185.441406 88.886719 185.445312 88.875 185.445312 88.875 C 185.5 88.703125 185.582031 88.511719 185.675781 88.300781 C 186.59375 86.222656 187.351562 86.511719 189.054688 85.972656 L 193.882812 84.730469 C 195.636719 84.375 196.160156 83.753906 197.96875 85.136719 C 198.109375 85.246094 198.242188 85.34375 198.351562 85.441406 C 198.382812 85.46875 198.417969 85.496094 198.445312 85.523438 C 198.558594 85.625 198.65625 85.722656 198.734375 85.8125 C 199.449219 86.621094 198.726562 86.914062 197.753906 87.714844 " fill-opacity="1" fill-rule="nonzero"/><path fill="#e2c4a7" d="M 233.390625 81.984375 C 232.097656 85.859375 230.125 89.613281 228.019531 93.027344 C 225.449219 97.191406 222.683594 100.847656 220.699219 103.597656 C 217.203125 108.453125 203.011719 112.800781 202.136719 113.066406 C 202.429688 112.941406 202.738281 112.796875 203.058594 112.640625 C 203.167969 112.589844 203.277344 112.535156 203.390625 112.476562 C 203.980469 112.179688 204.609375 111.835938 205.257812 111.4375 C 205.414062 111.339844 205.570312 111.242188 205.730469 111.136719 C 205.824219 111.078125 205.914062 111.019531 206.007812 110.957031 C 206.101562 110.890625 206.199219 110.832031 206.292969 110.765625 C 206.542969 110.59375 206.800781 110.410156 207.050781 110.226562 C 207.308594 110.035156 207.566406 109.839844 207.820312 109.632812 C 208.078125 109.425781 208.328125 109.210938 208.585938 108.988281 L 208.589844 108.984375 C 208.84375 108.757812 209.097656 108.523438 209.355469 108.28125 C 209.480469 108.164062 209.613281 108.039062 209.734375 107.910156 C 209.917969 107.726562 210.097656 107.535156 210.28125 107.339844 C 210.367188 107.246094 210.453125 107.15625 210.535156 107.058594 C 210.625 106.96875 210.710938 106.867188 210.792969 106.769531 C 210.976562 106.5625 211.160156 106.351562 211.339844 106.125 C 211.503906 105.929688 211.660156 105.722656 211.820312 105.515625 C 211.960938 105.328125 212.097656 105.140625 212.238281 104.949219 C 212.367188 104.769531 212.496094 104.582031 212.621094 104.390625 C 212.714844 104.253906 212.800781 104.117188 212.890625 103.984375 C 212.929688 103.921875 212.964844 103.863281 213.011719 103.800781 C 213.085938 103.675781 213.167969 103.542969 213.246094 103.414062 C 213.363281 103.21875 213.484375 103.015625 213.601562 102.808594 C 218.972656 93.273438 218.078125 94.375 220.902344 91.171875 C 223.003906 88.78125 225.378906 83.660156 226.800781 78.332031 L 226.800781 78.328125 C 227.273438 76.519531 227.648438 74.699219 227.855469 72.945312 C 228.695312 66.015625 226.28125 62.300781 221.722656 61.566406 C 218.871094 61.105469 216.121094 58.578125 213.335938 56.859375 C 205.734375 51.511719 199.515625 49.976562 199.515625 49.976562 C 196.414062 48.773438 193.90625 48.5 191.878906 48.792969 C 191.757812 48.808594 191.640625 48.832031 191.519531 48.851562 C 191.414062 48.871094 191.316406 48.890625 191.210938 48.914062 C 189.683594 49.246094 188.460938 49.90625 187.476562 50.714844 C 187.355469 50.8125 187.242188 50.910156 187.132812 51.007812 C 187.0625 51.074219 186.992188 51.144531 186.921875 51.210938 C 186.859375 51.265625 186.800781 51.324219 186.746094 51.386719 C 186.566406 51.566406 186.402344 51.746094 186.25 51.929688 C 186.097656 52.105469 185.953125 52.285156 185.824219 52.464844 C 185.8125 52.476562 185.804688 52.488281 185.800781 52.5 C 185.707031 52.617188 185.625 52.738281 185.542969 52.859375 C 185.445312 53 185.351562 53.148438 185.265625 53.289062 C 184.183594 55.058594 183.84375 56.664062 183.84375 56.664062 C 182.511719 55.976562 181.289062 55.457031 180.171875 55.082031 C 180.144531 55.070312 180.109375 55.058594 180.082031 55.054688 C 179.953125 55.011719 179.824219 54.96875 179.699219 54.933594 C 179.449219 54.859375 179.203125 54.785156 178.960938 54.726562 C 178.847656 54.699219 178.738281 54.664062 178.625 54.644531 C 178.546875 54.621094 178.476562 54.605469 178.40625 54.59375 C 178.253906 54.558594 178.09375 54.527344 177.941406 54.5 C 177.816406 54.472656 177.683594 54.453125 177.558594 54.4375 C 177.445312 54.417969 177.332031 54.402344 177.214844 54.386719 C 177.117188 54.375 177.019531 54.359375 176.925781 54.355469 C 176.828125 54.34375 176.730469 54.332031 176.628906 54.328125 C 176.515625 54.320312 176.402344 54.3125 176.292969 54.304688 C 176.128906 54.300781 175.96875 54.292969 175.8125 54.292969 C 173.203125 54.292969 171.410156 55.304688 170.191406 56.570312 C 169.984375 56.777344 169.800781 56.996094 169.625 57.21875 C 169.449219 57.4375 169.289062 57.664062 169.148438 57.890625 C 168.9375 58.226562 168.746094 58.5625 168.585938 58.890625 C 168.476562 59.101562 168.382812 59.316406 168.300781 59.519531 C 168.21875 59.71875 168.144531 59.917969 168.082031 60.097656 C 167.957031 60.460938 167.863281 60.773438 167.8125 61.015625 C 167.777344 61.128906 167.757812 61.226562 167.738281 61.300781 C 167.71875 61.417969 167.707031 61.484375 167.707031 61.484375 C 167.707031 61.484375 164.953125 65.664062 161.949219 67.183594 C 161.933594 67.191406 161.917969 67.199219 161.902344 67.203125 C 161.765625 67.257812 161.640625 67.324219 161.507812 67.390625 C 157.566406 69.484375 156.664062 76.472656 153.148438 79.226562 C 149.503906 82.078125 149.1875 86.488281 153.265625 92.15625 C 154.9375 94.472656 157.066406 96.761719 159.273438 98.742188 C 159.328125 98.796875 159.378906 98.839844 159.433594 98.890625 C 160.058594 99.453125 160.6875 99.992188 161.316406 100.5 C 163.839844 102.535156 166.308594 104.085938 168.171875 104.753906 C 172.195312 106.191406 170.878906 105.65625 180.195312 111.410156 C 185.976562 114.980469 191.714844 115.195312 195.242188 114.847656 C 195.242188 114.847656 179.941406 118.171875 174.363281 115.539062 C 170.386719 113.652344 164.507812 111.070312 159.039062 107.511719 C 159.027344 107.507812 159.015625 107.496094 159.007812 107.492188 C 158.335938 107.054688 157.667969 106.601562 157.011719 106.136719 C 156.558594 105.816406 156.117188 105.484375 155.675781 105.144531 C 155.640625 105.117188 155.613281 105.101562 155.59375 105.082031 C 155.570312 105.070312 155.550781 105.050781 155.539062 105.046875 C 155.527344 105.035156 155.523438 105.027344 155.523438 105.027344 C 154.578125 104.304688 153.664062 103.539062 152.796875 102.742188 C 146.558594 97.015625 143.59375 85.753906 144.035156 77.324219 C 144.277344 77.492188 144.511719 77.644531 144.730469 77.78125 C 145.324219 78.152344 145.828125 78.429688 146.148438 78.660156 C 146.214844 78.703125 146.277344 78.742188 146.324219 78.785156 C 146.40625 78.851562 146.488281 78.882812 146.582031 78.882812 C 146.621094 78.882812 146.660156 78.878906 146.695312 78.867188 C 146.734375 78.855469 146.777344 78.839844 146.816406 78.820312 C 147.066406 78.695312 147.347656 78.375 147.628906 77.90625 C 147.683594 77.808594 147.746094 77.707031 147.800781 77.597656 C 148.117188 77.015625 148.433594 76.253906 148.722656 75.363281 C 148.808594 75.113281 148.886719 74.859375 148.960938 74.585938 C 149.117188 74.082031 149.253906 73.542969 149.378906 72.976562 C 149.554688 72.203125 149.707031 71.375 149.828125 70.511719 C 149.878906 70.132812 149.925781 69.761719 149.972656 69.390625 C 150.039062 68.894531 150.09375 68.394531 150.160156 67.890625 C 150.1875 67.644531 150.21875 67.398438 150.25 67.148438 C 150.25 67.140625 150.25 67.121094 150.257812 67.117188 C 150.285156 66.875 150.316406 66.640625 150.351562 66.402344 C 150.382812 66.15625 150.414062 65.910156 150.453125 65.664062 C 150.488281 65.414062 150.523438 65.167969 150.5625 64.929688 C 150.589844 64.761719 150.617188 64.605469 150.644531 64.445312 C 150.683594 64.226562 150.726562 64.011719 150.769531 63.796875 C 150.769531 63.785156 150.769531 63.78125 150.777344 63.769531 C 150.847656 63.410156 150.921875 63.050781 151.011719 62.699219 C 151.058594 62.492188 151.113281 62.285156 151.175781 62.078125 C 151.179688 62.050781 151.1875 62.027344 151.191406 62 C 151.203125 61.964844 151.210938 61.929688 151.222656 61.894531 C 151.261719 61.765625 151.300781 61.640625 151.339844 61.515625 C 151.371094 61.40625 151.410156 61.296875 151.449219 61.1875 C 151.464844 61.128906 151.484375 61.070312 151.507812 61.015625 C 151.546875 60.894531 151.589844 60.773438 151.640625 60.652344 C 151.6875 60.515625 151.742188 60.382812 151.804688 60.242188 C 151.863281 60.097656 151.921875 59.957031 151.988281 59.808594 C 152.054688 59.664062 152.121094 59.527344 152.195312 59.386719 C 152.257812 59.261719 152.320312 59.144531 152.386719 59.023438 C 152.457031 58.890625 152.535156 58.765625 152.609375 58.640625 C 152.683594 58.511719 152.765625 58.394531 152.839844 58.273438 C 152.847656 58.269531 152.851562 58.269531 152.851562 58.261719 C 152.894531 58.199219 152.9375 58.136719 152.984375 58.078125 C 153.003906 58.042969 153.019531 58.011719 153.046875 57.984375 C 153.070312 57.957031 153.089844 57.925781 153.113281 57.898438 C 153.136719 57.859375 153.164062 57.828125 153.183594 57.792969 C 153.234375 57.722656 153.289062 57.65625 153.34375 57.589844 C 153.355469 57.582031 153.363281 57.570312 153.371094 57.558594 C 153.375 57.546875 153.386719 57.542969 153.398438 57.53125 C 153.429688 57.488281 153.46875 57.4375 153.507812 57.394531 C 153.546875 57.351562 153.582031 57.300781 153.621094 57.257812 C 153.648438 57.226562 153.679688 57.1875 153.714844 57.15625 C 153.726562 57.140625 153.730469 57.132812 153.742188 57.117188 C 153.8125 57.046875 153.882812 56.96875 153.960938 56.890625 C 153.980469 56.867188 154.007812 56.84375 154.035156 56.816406 C 154.128906 56.71875 154.226562 56.625 154.320312 56.539062 C 154.691406 56.195312 155.074219 55.878906 155.460938 55.566406 L 155.46875 55.566406 C 155.472656 55.558594 155.476562 55.550781 155.484375 55.550781 C 156.265625 54.933594 157.066406 54.386719 157.828125 53.898438 C 158.007812 53.78125 158.179688 53.667969 158.355469 53.5625 C 160.160156 52.445312 161.632812 51.675781 161.917969 51.167969 C 161.933594 51.140625 161.945312 51.117188 161.957031 51.089844 C 162 50.964844 161.960938 50.859375 161.832031 50.769531 C 161.832031 50.769531 161.4375 50.496094 160.699219 49.976562 C 160.515625 49.847656 160.3125 49.699219 160.082031 49.542969 C 160.007812 49.492188 159.925781 49.429688 159.84375 49.371094 C 159.519531 49.148438 159.160156 48.890625 158.765625 48.613281 C 158.636719 48.519531 158.5 48.421875 158.355469 48.324219 C 165.421875 42.226562 179.152344 38.300781 179.152344 38.300781 C 179.152344 38.300781 193.074219 35.109375 202.210938 37.03125 C 201.914062 37.644531 201.648438 38.199219 201.414062 38.667969 C 201.300781 38.902344 201.191406 39.121094 201.097656 39.320312 C 200.851562 39.824219 200.667969 40.207031 200.535156 40.464844 C 200.492188 40.566406 200.449219 40.644531 200.421875 40.703125 C 200.421875 40.710938 200.414062 40.710938 200.414062 40.710938 C 200.386719 40.769531 200.367188 40.808594 200.355469 40.832031 C 200.351562 40.839844 200.351562 40.84375 200.351562 40.84375 C 200.332031 40.875 200.324219 40.902344 200.316406 40.929688 C 200.273438 41.070312 200.332031 41.171875 200.476562 41.25 C 200.476562 41.25 200.476562 41.25 200.480469 41.25 C 200.5625 41.292969 200.671875 41.332031 200.8125 41.371094 L 200.820312 41.371094 C 200.914062 41.390625 201.015625 41.414062 201.132812 41.425781 C 201.132812 41.425781 201.132812 41.425781 201.136719 41.425781 C 201.25 41.441406 201.375 41.453125 201.515625 41.46875 C 201.585938 41.472656 201.65625 41.480469 201.730469 41.484375 C 201.878906 41.496094 202.039062 41.503906 202.203125 41.511719 C 202.453125 41.523438 202.726562 41.53125 203.011719 41.546875 C 203.292969 41.554688 203.601562 41.566406 203.917969 41.578125 C 203.917969 41.578125 203.917969 41.578125 203.921875 41.578125 C 204.15625 41.582031 204.40625 41.59375 204.660156 41.609375 C 204.910156 41.621094 205.171875 41.636719 205.433594 41.652344 C 205.703125 41.675781 205.96875 41.699219 206.242188 41.71875 C 206.523438 41.746094 206.800781 41.773438 207.078125 41.804688 C 207.449219 41.855469 207.832031 41.902344 208.214844 41.96875 C 208.214844 41.96875 208.148438 42.445312 208.246094 41.976562 C 208.738281 42.050781 209.226562 42.148438 209.710938 42.269531 C 210.46875 42.457031 211.179688 42.730469 211.847656 43.078125 C 212.257812 43.289062 212.648438 43.527344 213.027344 43.785156 C 213.21875 43.917969 213.402344 44.054688 213.582031 44.195312 C 213.949219 44.480469 214.304688 44.78125 214.648438 45.109375 C 216.539062 46.882812 218.109375 49.191406 219.738281 51.425781 C 219.960938 51.726562 220.179688 52.03125 220.40625 52.328125 C 220.996094 53.109375 221.59375 53.84375 222.191406 54.496094 C 224.734375 57.308594 227.117188 58.804688 227.472656 57.886719 C 227.519531 57.765625 227.585938 57.625 227.675781 57.464844 C 227.746094 57.351562 227.820312 57.21875 227.898438 57.078125 C 227.980469 56.9375 228.066406 56.785156 228.164062 56.621094 C 228.351562 56.292969 228.558594 55.921875 228.773438 55.5 C 233.238281 62.667969 236.078125 73.960938 233.390625 81.984375 " fill-opacity="1" fill-rule="nonzero"/><path fill="#d7b397" d="M 219.738281 51.421875 C 219.957031 51.722656 220.179688 52.027344 220.410156 52.328125 C 220.996094 53.109375 221.601562 53.839844 222.191406 54.496094 L 219.738281 51.421875 " fill-opacity="1" fill-rule="nonzero"/><path fill="#e2c4a7" d="M 213.484375 92.3125 C 205.277344 101.175781 197.84375 99.664062 195.578125 98.90625 C 192.347656 103.824219 187.53125 105.03125 183.589844 105.03125 C 179.839844 105.03125 176.882812 103.945312 176.820312 103.914062 C 176.394531 103.757812 176.183594 103.28125 176.347656 102.863281 C 176.503906 102.4375 176.980469 102.230469 177.402344 102.386719 C 177.875 102.5625 189.066406 106.65625 194.539062 97.480469 C 194.757812 97.113281 195.214844 96.980469 195.597656 97.160156 C 195.910156 97.308594 203.492188 100.695312 212.285156 91.203125 C 212.589844 90.871094 213.109375 90.847656 213.441406 91.15625 C 213.773438 91.464844 213.789062 91.984375 213.484375 92.3125 Z M 198.734375 85.8125 C 199.449219 86.617188 198.726562 86.914062 197.757812 87.714844 C 196.554688 88.699219 196.714844 88.566406 196.09375 90.671875 C 195.472656 92.765625 194.753906 93.730469 194.753906 93.730469 C 194.753906 93.730469 194.664062 94.058594 194.351562 94.316406 C 194.226562 94.421875 194.050781 94.511719 193.84375 94.566406 C 193.628906 94.621094 193.4375 94.625 193.277344 94.59375 C 192.878906 94.523438 192.648438 94.273438 192.648438 94.273438 C 192.648438 94.273438 191.550781 93.773438 189.988281 92.234375 C 188.433594 90.703125 188.636719 90.742188 187.105469 90.457031 C 186.058594 90.257812 185.335938 90.292969 185.292969 89.667969 C 182.835938 93.003906 172.605469 105.425781 161.316406 100.5 C 163.839844 102.535156 166.308594 104.085938 168.171875 104.753906 C 172.195312 106.191406 170.878906 105.660156 180.195312 111.410156 C 185.976562 114.980469 191.714844 115.195312 195.242188 114.847656 C 197.394531 114.636719 198.726562 114.210938 198.726562 114.210938 C 198.726562 114.210938 200.09375 113.9375 202.09375 113.082031 C 202.097656 113.082031 202.097656 113.074219 202.101562 113.074219 C 202.109375 113.074219 202.121094 113.070312 202.136719 113.066406 C 202.429688 112.9375 202.734375 112.796875 203.058594 112.640625 C 203.167969 112.589844 203.277344 112.535156 203.390625 112.476562 C 203.980469 112.179688 204.609375 111.835938 205.257812 111.4375 C 205.414062 111.339844 205.570312 111.242188 205.730469 111.136719 C 205.820312 111.078125 205.914062 111.019531 206.007812 110.957031 C 206.101562 110.890625 206.199219 110.832031 206.292969 110.769531 C 206.542969 110.59375 206.800781 110.414062 207.050781 110.226562 C 207.308594 110.035156 207.566406 109.839844 207.820312 109.632812 C 208.078125 109.425781 208.328125 109.210938 208.585938 108.988281 L 208.589844 108.980469 C 208.84375 108.757812 209.097656 108.523438 209.355469 108.28125 C 209.480469 108.164062 209.613281 108.039062 209.734375 107.910156 C 209.917969 107.726562 210.097656 107.535156 210.277344 107.339844 C 210.367188 107.246094 210.453125 107.160156 210.535156 107.058594 C 210.621094 106.964844 210.710938 106.871094 210.792969 106.769531 C 210.976562 106.5625 211.160156 106.351562 211.339844 106.128906 C 211.503906 105.929688 211.660156 105.722656 211.820312 105.515625 C 211.960938 105.332031 212.097656 105.140625 212.238281 104.949219 C 212.367188 104.769531 212.496094 104.582031 212.621094 104.390625 C 212.714844 104.253906 212.800781 104.121094 212.890625 103.984375 C 212.929688 103.921875 212.964844 103.863281 213.011719 103.800781 C 213.085938 103.675781 213.167969 103.542969 213.246094 103.414062 C 213.363281 103.21875 213.484375 103.015625 213.601562 102.808594 C 218.972656 93.273438 218.078125 94.375 220.902344 91.171875 C 223.003906 88.78125 225.378906 83.660156 226.800781 78.335938 C 221.730469 93.917969 202.644531 87.34375 198.734375 85.8125 Z M 216.828125 64.558594 C 216.695312 64.503906 203.648438 59.375 196.449219 73.160156 C 196.238281 73.5625 196.394531 74.054688 196.792969 74.265625 C 196.914062 74.328125 197.046875 74.359375 197.171875 74.359375 C 197.472656 74.359375 197.757812 74.195312 197.902344 73.917969 C 204.390625 61.484375 215.707031 65.871094 216.203125 66.074219 C 216.625 66.242188 217.105469 66.042969 217.273438 65.628906 C 217.445312 65.207031 217.242188 64.726562 216.828125 64.558594 Z M 180.171875 55.082031 C 181.289062 55.457031 182.511719 55.976562 183.84375 56.664062 C 183.84375 56.664062 184.183594 55.058594 185.265625 53.289062 C 184.210938 55.015625 182.085938 55.71875 180.171875 55.082031 Z M 180.859375 77.65625 C 168.105469 68.75 158.898438 79.316406 158.808594 79.425781 C 158.515625 79.769531 158.558594 80.289062 158.902344 80.578125 C 159.054688 80.707031 159.246094 80.773438 159.433594 80.773438 C 159.667969 80.773438 159.898438 80.675781 160.054688 80.484375 C 160.394531 80.089844 168.371094 70.9375 179.917969 79 C 180.289062 79.253906 180.804688 79.167969 181.058594 78.796875 C 181.320312 78.425781 181.230469 77.917969 180.859375 77.65625 " fill-opacity="1" fill-rule="nonzero"/><path fill="#49332d" d="M 217.273438 65.625 C 217.105469 66.039062 216.625 66.242188 216.207031 66.074219 C 215.707031 65.871094 204.390625 61.480469 197.902344 73.917969 C 197.757812 74.195312 197.472656 74.359375 197.171875 74.359375 C 197.046875 74.359375 196.914062 74.328125 196.796875 74.265625 C 196.394531 74.054688 196.238281 73.5625 196.449219 73.160156 C 203.648438 59.375 216.695312 64.5 216.828125 64.554688 C 217.242188 64.722656 217.445312 65.207031 217.273438 65.625 Z M 158.902344 80.574219 C 158.558594 80.289062 158.515625 79.769531 158.808594 79.421875 C 158.898438 79.316406 168.105469 68.75 180.859375 77.65625 C 181.230469 77.917969 181.320312 78.425781 181.058594 78.796875 C 180.804688 79.167969 180.289062 79.253906 179.917969 79 C 168.375 70.9375 160.394531 80.089844 160.054688 80.484375 C 159.898438 80.671875 159.667969 80.773438 159.433594 80.773438 C 159.246094 80.773438 159.054688 80.707031 158.902344 80.574219 Z M 221.722656 61.5625 C 218.871094 61.105469 216.121094 58.578125 213.335938 56.859375 C 205.734375 51.507812 199.515625 49.976562 199.515625 49.976562 C 196.414062 48.769531 193.90625 48.496094 191.878906 48.792969 C 191.757812 48.808594 191.640625 48.828125 191.519531 48.851562 C 191.414062 48.867188 191.316406 48.890625 191.214844 48.910156 C 189.683594 49.246094 188.460938 49.90625 187.476562 50.710938 C 187.355469 50.8125 187.242188 50.910156 187.132812 51.007812 C 187.0625 51.074219 186.992188 51.144531 186.921875 51.210938 C 186.859375 51.265625 186.800781 51.324219 186.746094 51.386719 C 186.566406 51.566406 186.402344 51.746094 186.25 51.929688 C 186.097656 52.105469 185.953125 52.285156 185.824219 52.464844 C 185.8125 52.476562 185.804688 52.488281 185.800781 52.5 C 185.707031 52.621094 185.625 52.738281 185.542969 52.859375 C 185.445312 53 185.351562 53.148438 185.265625 53.289062 C 184.183594 55.058594 183.84375 56.664062 183.84375 56.664062 C 182.511719 55.976562 181.289062 55.457031 180.171875 55.082031 C 180.144531 55.070312 180.109375 55.058594 180.082031 55.054688 C 179.953125 55.007812 179.824219 54.972656 179.699219 54.933594 C 179.449219 54.855469 179.203125 54.785156 178.960938 54.726562 C 178.847656 54.699219 178.738281 54.664062 178.625 54.644531 C 178.546875 54.621094 178.476562 54.605469 178.40625 54.59375 C 178.253906 54.554688 178.09375 54.527344 177.941406 54.5 C 177.816406 54.472656 177.683594 54.453125 177.558594 54.4375 C 177.445312 54.417969 177.332031 54.402344 177.214844 54.386719 C 177.117188 54.375 177.019531 54.359375 176.925781 54.355469 C 176.828125 54.34375 176.730469 54.332031 176.628906 54.328125 C 176.515625 54.320312 176.402344 54.308594 176.292969 54.304688 C 176.128906 54.300781 175.96875 54.292969 175.8125 54.292969 C 173.203125 54.292969 171.410156 55.304688 170.191406 56.570312 C 169.984375 56.777344 169.800781 56.996094 169.625 57.21875 C 169.453125 57.4375 169.296875 57.664062 169.148438 57.890625 C 168.9375 58.222656 168.746094 58.5625 168.585938 58.890625 C 168.484375 59.101562 168.382812 59.316406 168.300781 59.515625 C 168.21875 59.71875 168.144531 59.914062 168.082031 60.097656 C 167.957031 60.460938 167.863281 60.773438 167.8125 61.011719 C 167.777344 61.128906 167.757812 61.226562 167.738281 61.300781 C 167.71875 61.417969 167.707031 61.480469 167.707031 61.480469 C 167.707031 61.480469 164.953125 65.664062 161.949219 67.183594 C 161.933594 67.191406 161.917969 67.199219 161.902344 67.203125 C 161.769531 67.273438 161.640625 67.335938 161.507812 67.386719 C 157.566406 69.484375 156.664062 76.472656 153.148438 79.226562 C 149.503906 82.078125 149.1875 86.488281 153.265625 92.152344 C 154.9375 94.472656 157.066406 96.761719 159.273438 98.742188 C 159.328125 98.796875 159.378906 98.839844 159.433594 98.890625 C 160.0625 99.449219 160.6875 99.992188 161.316406 100.5 C 172.605469 105.421875 182.835938 93.003906 185.292969 89.671875 C 185.277344 89.515625 185.304688 89.320312 185.378906 89.070312 C 185.398438 89.015625 185.414062 88.960938 185.433594 88.898438 C 185.441406 88.882812 185.445312 88.875 185.445312 88.875 C 185.5 88.703125 185.582031 88.511719 185.675781 88.300781 C 186.59375 86.21875 187.351562 86.507812 189.054688 85.976562 L 193.882812 84.730469 C 195.636719 84.375 196.160156 83.753906 197.96875 85.132812 C 198.113281 85.242188 198.242188 85.34375 198.351562 85.441406 C 198.382812 85.464844 198.417969 85.496094 198.445312 85.519531 C 198.558594 85.625 198.65625 85.722656 198.734375 85.808594 C 202.644531 87.34375 221.730469 93.917969 226.800781 78.332031 L 226.800781 78.328125 C 227.277344 76.519531 227.648438 74.695312 227.855469 72.945312 C 228.695312 66.011719 226.28125 62.300781 221.722656 61.5625 " fill-opacity="1" fill-rule="nonzero"/><path fill="#191818" d="M 197.753906 87.714844 C 196.554688 88.699219 196.710938 88.570312 196.09375 90.667969 C 195.472656 92.765625 194.75 93.730469 194.75 93.730469 C 194.75 93.730469 194.664062 94.058594 194.351562 94.316406 C 194.226562 94.425781 194.050781 94.511719 193.84375 94.566406 C 193.628906 94.621094 193.4375 94.628906 193.277344 94.59375 C 192.878906 94.523438 192.648438 94.273438 192.648438 94.273438 C 192.648438 94.273438 191.550781 93.773438 189.988281 92.238281 C 188.433594 90.703125 188.636719 90.742188 187.105469 90.457031 C 186.058594 90.261719 185.335938 90.292969 185.292969 89.671875 C 185.277344 89.515625 185.304688 89.320312 185.378906 89.070312 C 185.394531 89.015625 185.414062 88.960938 185.433594 88.902344 C 185.441406 88.886719 185.445312 88.875 185.445312 88.875 C 185.5 88.703125 185.582031 88.511719 185.675781 88.300781 C 186.59375 86.222656 187.351562 86.511719 189.054688 85.972656 L 193.882812 84.730469 C 195.636719 84.375 196.160156 83.753906 197.96875 85.136719 C 198.109375 85.246094 198.242188 85.34375 198.351562 85.441406 C 198.382812 85.46875 198.417969 85.496094 198.445312 85.523438 C 198.558594 85.625 198.65625 85.722656 198.734375 85.8125 C 199.449219 86.621094 198.726562 86.914062 197.753906 87.714844 " fill-opacity="1" fill-rule="nonzero"/><path fill="#d7b397" d="M 213.484375 92.3125 C 205.277344 101.175781 197.84375 99.664062 195.578125 98.90625 C 192.351562 103.824219 187.53125 105.027344 183.589844 105.027344 C 179.84375 105.027344 176.882812 103.945312 176.824219 103.914062 C 176.394531 103.757812 176.183594 103.28125 176.347656 102.863281 C 176.503906 102.4375 176.980469 102.230469 177.402344 102.386719 C 177.875 102.5625 189.066406 106.65625 194.539062 97.480469 C 194.757812 97.113281 195.214844 96.980469 195.597656 97.160156 C 195.910156 97.304688 203.492188 100.695312 212.285156 91.203125 C 212.589844 90.871094 213.109375 90.847656 213.441406 91.15625 C 213.773438 91.464844 213.792969 91.984375 213.484375 92.3125 " fill-opacity="1" fill-rule="nonzero"/><path fill="#c9a7a8" d="M 226.902344 47.617188 C 226.113281 48.832031 225.390625 49.636719 224.734375 50.382812 C 223.78125 51.480469 222.945312 52.472656 222.191406 54.5 C 221.59375 53.84375 220.996094 53.113281 220.40625 52.328125 C 220.179688 52.03125 219.960938 51.730469 219.738281 51.425781 C 226.0625 44.589844 223.796875 30.257812 221.878906 22.066406 C 219.871094 13.496094 216.621094 22.414062 214.054688 30.515625 C 212.191406 36.402344 211.878906 41.007812 211.847656 43.078125 C 211.179688 42.730469 210.46875 42.457031 209.710938 42.269531 C 209.226562 42.152344 208.738281 42.050781 208.246094 41.976562 L 208.242188 41.976562 C 208.308594 41.65625 208.4375 40.902344 208.71875 39.261719 C 208.871094 38.328125 209.070312 37.113281 209.335938 35.519531 C 210.722656 27.039062 213.117188 20.902344 217.996094 13.816406 C 222.867188 6.734375 224.914062 11.261719 226.378906 24.855469 C 227.84375 38.453125 228.863281 44.640625 226.902344 47.617188 " fill-opacity="1" fill-rule="nonzero"/><path fill="#49332d" d="M 228.773438 55.496094 L 228.773438 55.5 C 228.558594 55.921875 228.351562 56.292969 228.164062 56.621094 C 227.972656 56.949219 227.804688 57.230469 227.675781 57.464844 C 227.585938 57.625 227.519531 57.769531 227.472656 57.886719 C 227.117188 58.804688 224.734375 57.308594 222.191406 54.5 C 222.945312 52.472656 223.78125 51.480469 224.734375 50.382812 C 225.390625 49.636719 226.113281 48.832031 226.902344 47.617188 C 228.863281 44.640625 227.84375 38.453125 226.378906 24.855469 C 224.914062 11.261719 222.867188 6.734375 217.996094 13.816406 C 213.117188 20.902344 210.722656 27.039062 209.335938 35.519531 C 209.070312 37.113281 208.871094 38.328125 208.71875 39.261719 C 208.4375 40.902344 208.308594 41.65625 208.242188 41.976562 C 208.238281 41.972656 208.226562 41.964844 208.214844 41.964844 C 207.832031 41.898438 207.449219 41.851562 207.078125 41.804688 C 205.953125 41.671875 204.871094 41.609375 203.921875 41.578125 C 203.917969 41.578125 203.917969 41.578125 203.917969 41.578125 C 203.601562 41.5625 203.300781 41.550781 203.011719 41.542969 C 202.726562 41.535156 202.453125 41.523438 202.203125 41.511719 C 202.039062 41.503906 201.878906 41.492188 201.730469 41.484375 C 201.65625 41.480469 201.585938 41.476562 201.515625 41.46875 C 201.375 41.453125 201.25 41.441406 201.136719 41.425781 C 201.132812 41.425781 201.132812 41.425781 201.132812 41.425781 C 201.015625 41.410156 200.914062 41.386719 200.820312 41.371094 C 200.8125 41.363281 200.8125 41.371094 200.8125 41.371094 C 200.671875 41.332031 200.5625 41.292969 200.480469 41.25 C 200.476562 41.25 200.476562 41.25 200.476562 41.25 C 200.339844 41.167969 200.285156 41.0625 200.316406 40.929688 C 200.324219 40.902344 200.332031 40.871094 200.351562 40.84375 C 200.351562 40.84375 200.351562 40.839844 200.355469 40.832031 C 200.367188 40.808594 200.386719 40.769531 200.414062 40.710938 C 200.414062 40.710938 200.421875 40.710938 200.421875 40.703125 C 200.449219 40.644531 200.492188 40.566406 200.535156 40.464844 C 200.667969 40.207031 200.851562 39.828125 201.097656 39.324219 C 201.191406 39.121094 201.300781 38.902344 201.414062 38.667969 C 201.648438 38.199219 201.914062 37.648438 202.210938 37.03125 C 203.8125 33.730469 206.359375 28.414062 209.519531 21.601562 C 215.046875 9.691406 223.710938 0.910156 226.160156 13.816406 C 228.613281 26.726562 229.699219 44.5 230.042969 49.214844 C 230.242188 51.914062 229.507812 54 228.773438 55.496094 " fill-opacity="1" fill-rule="nonzero"/><path fill="#d7b397" d="M 150.5625 64.929688 C 150.523438 65.167969 150.488281 65.414062 150.453125 65.664062 C 150.414062 65.910156 150.382812 66.15625 150.351562 66.402344 C 150.316406 66.640625 150.285156 66.875 150.257812 67.117188 C 150.285156 66.882812 150.316406 66.640625 150.34375 66.402344 C 150.382812 66.15625 150.414062 65.90625 150.449219 65.664062 C 150.488281 65.417969 150.523438 65.167969 150.5625 64.929688 " fill-opacity="1" fill-rule="nonzero"/><path fill="#d7b397" d="M 151.988281 59.808594 C 151.925781 59.953125 151.863281 60.097656 151.804688 60.242188 C 151.742188 60.378906 151.6875 60.515625 151.640625 60.652344 C 151.695312 60.515625 151.742188 60.378906 151.796875 60.238281 C 151.859375 60.097656 151.925781 59.949219 151.988281 59.808594 " fill-opacity="1" fill-rule="nonzero"/><path fill="#bb9698" d="M 219.738281 51.421875 C 218.113281 49.191406 216.539062 46.882812 214.648438 45.109375 C 214.304688 44.777344 213.949219 44.480469 213.585938 44.195312 C 213.402344 44.054688 213.21875 43.917969 213.027344 43.789062 C 212.652344 43.523438 212.257812 43.285156 211.847656 43.078125 C 211.878906 41.003906 212.191406 36.402344 214.054688 30.511719 C 216.621094 22.410156 219.871094 13.492188 221.878906 22.0625 C 223.796875 30.257812 226.0625 44.589844 219.738281 51.421875 " fill-opacity="1" fill-rule="nonzero"/><path fill="#49332d" d="M 161.957031 51.089844 C 161.945312 51.117188 161.933594 51.136719 161.917969 51.167969 C 161.632812 51.675781 160.160156 52.445312 158.359375 53.5625 C 158.183594 53.664062 158.007812 53.78125 157.828125 53.898438 C 157.070312 54.386719 156.265625 54.933594 155.484375 55.550781 C 155.484375 55.550781 138.335938 40.363281 124.410156 36.414062 C 124.410156 36.414062 120.925781 35.128906 122.632812 40.925781 C 124.34375 46.722656 130.28125 65.191406 136.152344 66.023438 C 142.023438 66.855469 147.3125 68.050781 149.378906 72.976562 C 149.253906 73.539062 149.117188 74.078125 148.964844 74.582031 C 148.886719 74.851562 148.804688 75.113281 148.722656 75.363281 C 148.433594 76.253906 148.117188 77.015625 147.800781 77.597656 C 147.746094 77.707031 147.6875 77.808594 147.632812 77.90625 C 147.347656 78.375 147.070312 78.691406 146.816406 78.820312 C 146.777344 78.839844 146.734375 78.855469 146.695312 78.867188 C 146.660156 78.878906 146.621094 78.882812 146.582031 78.882812 C 146.488281 78.882812 146.40625 78.851562 146.324219 78.785156 C 146.277344 78.742188 146.214844 78.703125 146.152344 78.660156 C 145.828125 78.429688 145.324219 78.152344 144.730469 77.78125 C 144.511719 77.644531 144.277344 77.492188 144.039062 77.324219 C 144.039062 77.324219 144.03125 77.324219 144.027344 77.316406 C 144.019531 77.316406 144.015625 77.3125 144.003906 77.304688 C 143.441406 77.015625 135.207031 72.746094 129.144531 62.921875 C 122.863281 52.753906 121.3125 44.292969 118.402344 37.105469 C 117.046875 33.761719 119.59375 32.554688 125.507812 33.808594 C 126.398438 33.996094 127.371094 34.242188 128.410156 34.546875 C 130.90625 35.265625 133.835938 36.320312 137.160156 37.710938 C 143.015625 40.15625 150.117188 43.664062 158.320312 48.300781 C 158.332031 48.3125 158.347656 48.316406 158.359375 48.328125 C 158.5 48.425781 158.628906 48.523438 158.765625 48.613281 C 159.160156 48.890625 159.519531 49.148438 159.84375 49.371094 C 159.925781 49.429688 160.007812 49.492188 160.082031 49.539062 C 160.3125 49.710938 160.519531 49.851562 160.699219 49.976562 C 161.4375 50.496094 161.832031 50.769531 161.832031 50.769531 C 161.960938 50.859375 162 50.964844 161.957031 51.089844 " fill-opacity="1" fill-rule="nonzero"/><path fill="#c9a7a8" d="M 155.484375 55.550781 C 155.480469 55.550781 155.472656 55.5625 155.46875 55.566406 L 155.460938 55.566406 C 155.074219 55.878906 154.691406 56.195312 154.320312 56.539062 C 154.226562 56.628906 154.128906 56.71875 154.039062 56.820312 C 154.007812 56.847656 153.980469 56.867188 153.960938 56.894531 C 153.882812 56.972656 153.8125 57.046875 153.742188 57.117188 C 153.730469 57.132812 153.726562 57.140625 153.714844 57.15625 C 153.683594 57.191406 153.648438 57.226562 153.621094 57.261719 C 153.582031 57.300781 153.546875 57.351562 153.507812 57.394531 C 153.46875 57.441406 153.429688 57.484375 153.394531 57.527344 C 153.386719 57.539062 153.375 57.546875 153.371094 57.5625 C 153.363281 57.570312 153.355469 57.582031 153.34375 57.59375 C 153.289062 57.660156 153.234375 57.722656 153.183594 57.792969 C 153.15625 57.828125 153.136719 57.859375 153.109375 57.890625 C 153.085938 57.925781 153.066406 57.953125 153.046875 57.984375 C 153.019531 58.011719 153.003906 58.046875 152.984375 58.078125 C 152.9375 58.136719 152.894531 58.199219 152.851562 58.261719 C 152.851562 58.269531 152.847656 58.269531 152.839844 58.277344 C 152.765625 58.394531 152.683594 58.515625 152.609375 58.640625 C 152.535156 58.765625 152.457031 58.890625 152.386719 59.023438 C 152.386719 59.023438 142.160156 47.574219 133.238281 43.65625 C 124.316406 39.742188 131.140625 49.902344 134.058594 56.109375 C 136.96875 62.308594 143.78125 66.71875 150.25 67.152344 C 150.21875 67.402344 150.1875 67.648438 150.160156 67.894531 C 150.09375 68.394531 150.039062 68.894531 149.972656 69.394531 C 149.925781 69.765625 149.878906 70.136719 149.828125 70.511719 C 149.707031 71.375 149.554688 72.203125 149.378906 72.980469 C 147.3125 68.050781 142.023438 66.855469 136.152344 66.027344 C 130.28125 65.191406 124.34375 46.726562 122.632812 40.925781 C 120.925781 35.132812 124.410156 36.414062 124.410156 36.414062 C 138.335938 40.367188 155.484375 55.550781 155.484375 55.550781 " fill-opacity="1" fill-rule="nonzero"/><path fill="#bb9698" d="M 152.386719 59.019531 C 152.324219 59.140625 152.257812 59.261719 152.195312 59.386719 C 152.121094 59.527344 152.054688 59.664062 151.988281 59.804688 C 151.921875 59.949219 151.859375 60.097656 151.796875 60.238281 C 151.742188 60.378906 151.695312 60.515625 151.640625 60.652344 C 151.589844 60.773438 151.546875 60.886719 151.507812 61.011719 C 151.488281 61.066406 151.464844 61.128906 151.449219 61.1875 C 151.410156 61.296875 151.371094 61.40625 151.339844 61.515625 C 151.300781 61.640625 151.261719 61.765625 151.226562 61.890625 C 151.214844 61.929688 151.203125 61.964844 151.191406 62 C 151.1875 62.03125 151.175781 62.054688 151.171875 62.082031 C 151.117188 62.285156 151.0625 62.492188 151.011719 62.699219 C 150.925781 63.050781 150.847656 63.410156 150.777344 63.769531 C 150.769531 63.78125 150.769531 63.785156 150.769531 63.796875 C 150.726562 64.011719 150.683594 64.226562 150.644531 64.445312 C 150.617188 64.605469 150.589844 64.761719 150.5625 64.925781 C 150.527344 65.167969 150.488281 65.417969 150.449219 65.664062 C 150.414062 65.90625 150.382812 66.15625 150.347656 66.402344 C 150.316406 66.640625 150.285156 66.882812 150.257812 67.117188 C 150.253906 67.121094 150.253906 67.136719 150.253906 67.148438 C 143.78125 66.71875 136.96875 62.308594 134.058594 56.105469 C 131.140625 49.898438 124.316406 39.742188 133.238281 43.65625 C 142.160156 47.570312 152.386719 59.019531 152.386719 59.019531 " fill-opacity="1" fill-rule="nonzero"/><path fill="#191818" d="M 213.484375 92.3125 C 205.277344 101.175781 197.84375 99.664062 195.578125 98.90625 C 192.351562 103.824219 187.53125 105.027344 183.589844 105.027344 C 179.84375 105.027344 176.882812 103.945312 176.824219 103.914062 C 176.394531 103.757812 176.183594 103.28125 176.347656 102.863281 C 176.503906 102.4375 176.980469 102.230469 177.402344 102.386719 C 177.875 102.5625 189.066406 106.65625 194.539062 97.480469 C 194.757812 97.113281 195.214844 96.980469 195.597656 97.160156 C 195.910156 97.304688 203.492188 100.695312 212.285156 91.203125 C 212.589844 90.871094 213.109375 90.847656 213.441406 91.15625 C 213.773438 91.464844 213.792969 91.984375 213.484375 92.3125 " fill-opacity="1" fill-rule="nonzero"/><path fill="#d7b397" d="M 161.316406 100.5 C 160.6875 99.992188 160.058594 99.453125 159.433594 98.890625 C 159.378906 98.839844 159.328125 98.796875 159.273438 98.742188 L 161.316406 100.5 " fill-opacity="1" fill-rule="nonzero"/><path fill="#d7b397" d="M 185.292969 89.671875 C 185.277344 89.519531 185.304688 89.320312 185.378906 89.070312 L 185.292969 89.671875 " fill-opacity="1" fill-rule="nonzero"/><path fill="#191818" d="M 181.058594 78.796875 C 180.804688 79.171875 180.289062 79.257812 179.917969 79 C 168.371094 70.9375 160.394531 80.09375 160.054688 80.484375 C 159.894531 80.675781 159.667969 80.773438 159.433594 80.773438 C 159.246094 80.773438 159.054688 80.710938 158.902344 80.578125 C 158.558594 80.289062 158.515625 79.769531 158.808594 79.425781 C 158.898438 79.316406 168.105469 68.75 180.859375 77.65625 C 181.230469 77.917969 181.320312 78.425781 181.058594 78.796875 " fill-opacity="1" fill-rule="nonzero"/><path fill="#191818" d="M 217.273438 65.628906 C 217.105469 66.042969 216.625 66.246094 216.203125 66.074219 C 215.707031 65.875 204.390625 61.484375 197.902344 73.917969 C 197.753906 74.195312 197.472656 74.359375 197.171875 74.359375 C 197.046875 74.359375 196.914062 74.328125 196.792969 74.269531 C 196.394531 74.054688 196.238281 73.5625 196.449219 73.160156 C 203.648438 59.378906 216.695312 64.503906 216.828125 64.558594 C 217.242188 64.726562 217.445312 65.207031 217.273438 65.628906 " fill-opacity="1" fill-rule="nonzero"/><path fill="#d7b397" d="M 234.183594 138.132812 C 233.703125 139.636719 232.953125 139.226562 230.90625 135.628906 C 225.855469 126.757812 217.796875 124.984375 206.84375 124.4375 C 195.886719 123.894531 189.808594 127.304688 181.207031 122.257812 C 175.035156 118.632812 164.5 111.34375 159.039062 107.511719 C 164.503906 111.070312 170.386719 113.652344 174.363281 115.535156 C 179.941406 118.171875 195.242188 114.851562 195.242188 114.851562 C 197.394531 114.636719 198.726562 114.210938 198.726562 114.210938 C 198.726562 114.210938 200.09375 113.9375 202.089844 113.082031 C 202.097656 113.082031 202.097656 113.074219 202.101562 113.074219 C 202.109375 113.074219 202.121094 113.070312 202.136719 113.0625 C 203.007812 112.800781 217.203125 108.453125 220.699219 103.597656 C 222.679688 100.847656 225.449219 97.191406 228.015625 93.027344 C 228.015625 93.027344 227.628906 110.300781 228.996094 116.550781 C 229.914062 120.761719 231.824219 123.621094 234.183594 138.132812 " fill-opacity="1" fill-rule="nonzero"/><path fill="#49332d" d="M 209.605469 324.757812 C 194.042969 324.757812 198.683594 316.027344 194.859375 308.65625 C 192.304688 303.734375 191.09375 301.855469 190.484375 295.191406 C 190.480469 295.136719 190.476562 295.078125 190.46875 295.023438 C 190.179688 291.742188 190.03125 287.308594 189.945312 280.820312 C 189.671875 260.894531 189.945312 243.976562 186.667969 233.332031 C 186.050781 231.328125 185.695312 229.695312 185.578125 228.417969 C 185.046875 222.914062 188.875 224.109375 194.859375 231.421875 C 202.234375 240.429688 203.871094 239.609375 205.511719 236.335938 C 207.148438 233.058594 207.421875 242.609375 209.332031 239.335938 C 211.246094 236.0625 214.25 240.429688 215.339844 245.339844 C 215.894531 247.820312 218.382812 248.074219 221.53125 246.492188 C 221.117188 247.945312 220.78125 249.378906 220.53125 250.800781 C 217.253906 269.355469 213.429688 307.839844 220.53125 306.746094 C 227.628906 305.65625 230.085938 305.929688 233.089844 314.660156 C 236.09375 323.394531 225.171875 324.757812 209.605469 324.757812 " fill-opacity="1" fill-rule="nonzero"/><path fill="#49332d" d="M 173.015625 326.671875 C 154.171875 328.035156 139.152344 328.851562 139.699219 324.757812 C 140.246094 320.664062 142.15625 315.207031 151.167969 310.839844 C 153.140625 309.882812 155.96875 308.984375 159.191406 307.851562 C 159.199219 307.851562 159.199219 307.851562 159.199219 307.851562 C 163.246094 307.707031 167.011719 307.789062 170.683594 307.875 C 173.625 307.941406 176.515625 308.011719 179.433594 307.976562 C 189.671875 307.839844 193.359375 313.296875 195.269531 318.753906 C 197.183594 324.214844 191.855469 325.304688 173.015625 326.671875 " fill-opacity="1" fill-rule="nonzero"/><path fill="#e2c4a7" d="M 221.53125 246.492188 C 218.382812 248.078125 215.894531 247.820312 215.339844 245.34375 C 214.25 240.429688 211.246094 236.0625 209.332031 239.335938 C 207.421875 242.613281 207.148438 233.058594 205.511719 236.335938 C 203.871094 239.609375 202.234375 240.429688 194.863281 231.421875 C 188.875 224.109375 185.046875 222.914062 185.578125 228.421875 C 183.5625 219.9375 182.84375 211.5 181.574219 225.691406 C 180.300781 239.882812 176.835938 240.0625 163.917969 237.519531 C 150.988281 234.96875 156.085938 238.792969 156.085938 238.792969 C 156.085938 238.792969 187.214844 245.34375 187.214844 274.269531 C 187.214844 296.871094 170.714844 303.816406 159.199219 307.851562 C 159.199219 307.851562 159.199219 307.851562 159.191406 307.851562 C 155.96875 308.984375 153.140625 309.886719 151.167969 310.84375 C 142.15625 315.207031 140.246094 320.664062 139.699219 324.757812 C 139.699219 324.757812 138.046875 320.386719 134.335938 317.710938 C 133.648438 317.214844 132.882812 316.78125 132.054688 316.433594 C 130.996094 316 129.011719 315.464844 126.445312 314.644531 C 120.007812 312.59375 109.886719 308.777344 101.441406 300.398438 C 99.242188 298.214844 97.160156 295.726562 95.28125 292.878906 C 92.824219 289.144531 90.714844 284.800781 89.179688 279.730469 C 80.171875 249.980469 76.347656 199.21875 95.734375 170.835938 C 115.125 142.453125 136.96875 134.8125 146.800781 131.535156 C 156.621094 128.265625 160.632812 123.34375 157.011719 106.136719 C 157.667969 106.601562 158.335938 107.054688 159.007812 107.492188 C 159.015625 107.496094 159.027344 107.507812 159.039062 107.511719 C 164.5 111.34375 175.035156 118.632812 181.207031 122.257812 C 189.808594 127.304688 195.886719 123.894531 206.84375 124.441406 C 217.800781 124.984375 225.855469 126.761719 230.90625 135.628906 C 232.953125 139.226562 233.703125 139.636719 234.183594 138.132812 C 235.332031 145.164062 236.574219 154.933594 237.871094 168.925781 C 241.523438 208.492188 226.4375 228.972656 221.53125 246.492188 " fill-opacity="1" fill-rule="nonzero"/><path fill="#d7b397" d="M 190.484375 295.191406 C 187.328125 298.710938 180.394531 305.273438 170.683594 307.875 C 167.011719 307.789062 163.246094 307.707031 159.199219 307.851562 C 170.714844 303.816406 187.214844 296.871094 187.214844 274.269531 C 187.214844 245.339844 156.085938 238.792969 156.085938 238.792969 C 156.085938 238.792969 150.988281 234.96875 163.917969 237.519531 C 176.835938 240.0625 180.300781 239.882812 181.574219 225.691406 C 182.84375 211.5 183.5625 219.9375 185.578125 228.417969 C 185.695312 229.695312 186.050781 231.328125 186.667969 233.332031 C 189.945312 243.976562 189.671875 260.894531 189.945312 280.820312 C 190.03125 287.308594 190.179688 291.742188 190.46875 295.023438 C 190.476562 295.078125 190.480469 295.136719 190.484375 295.191406 " fill-opacity="1" fill-rule="nonzero"/><g clip-path="url(#d9de638d0f)"><path fill="#49332d" d="M 269.027344 346.753906 C 251.003906 372.40625 197.9375 383.59375 155.09375 367.421875 C 112.25 351.25 101.441406 300.398438 101.441406 300.398438 C 109.886719 308.777344 120.007812 312.59375 126.445312 314.644531 C 151.800781 378.875 234.589844 345.621094 244.472656 331.605469 C 254.359375 317.589844 287.050781 321.097656 269.027344 346.753906 " fill-opacity="1" fill-rule="nonzero"/></g></svg>