
<svg xmlns="http://www.w3.org/2000/svg" xmlns:xlink="http://www.w3.org/1999/xlink" width="500" zoomAndPan="magnify" viewBox="0 0 375 374.999991" height="500" preserveAspectRatio="xMidYMid meet" version="1.0"><defs><clipPath id="f576e885d5"><path d="M 164.800781 268.046875 L 320.554688 268.046875 L 320.554688 341.203125 L 164.800781 341.203125 Z M 164.800781 268.046875 " clip-rule="nonzero"/></clipPath><clipPath id="eb0def36a1"><path d="M 59 283.722656 L 207 283.722656 L 207 347.566406 L 59 347.566406 Z M 59 283.722656 " clip-rule="nonzero"/></clipPath></defs><path fill="#d7b397" d="M 141.402344 101.640625 C 140.375 102.484375 140.511719 102.371094 139.984375 104.171875 C 139.453125 105.964844 138.835938 106.792969 138.835938 106.792969 C 138.835938 106.792969 138.761719 107.070312 138.496094 107.292969 C 138.386719 107.386719 138.238281 107.457031 138.058594 107.507812 C 137.871094 107.554688 137.710938 107.558594 137.574219 107.53125 C 137.234375 107.46875 137.035156 107.253906 137.035156 107.253906 C 137.035156 107.253906 136.097656 106.828125 134.761719 105.511719 C 133.429688 104.199219 133.601562 104.230469 132.296875 103.988281 C 131.398438 103.820312 130.78125 103.847656 130.746094 103.3125 C 130.730469 103.183594 130.753906 103.015625 130.820312 102.800781 C 130.832031 102.753906 130.847656 102.707031 130.867188 102.65625 C 130.871094 102.640625 130.875 102.632812 130.875 102.632812 C 130.921875 102.488281 130.992188 102.324219 131.070312 102.140625 C 131.855469 100.363281 132.503906 100.609375 133.964844 100.152344 L 138.09375 99.085938 C 139.59375 98.78125 140.039062 98.25 141.585938 99.433594 C 141.707031 99.523438 141.820312 99.609375 141.914062 99.695312 C 141.941406 99.714844 141.96875 99.738281 141.992188 99.761719 C 142.089844 99.851562 142.175781 99.9375 142.242188 100.011719 C 142.851562 100.703125 142.234375 100.957031 141.402344 101.640625 " fill-opacity="1" fill-rule="nonzero"/><path fill="#e2c4a7" d="M 171.882812 96.734375 C 170.777344 100.054688 169.089844 103.269531 167.289062 106.1875 C 165.089844 109.753906 162.722656 112.886719 161.027344 115.242188 C 158.039062 119.394531 145.898438 123.121094 145.152344 123.34375 C 145.402344 123.238281 145.664062 123.117188 145.941406 122.980469 C 146.03125 122.9375 146.125 122.890625 146.222656 122.839844 C 146.730469 122.589844 147.265625 122.292969 147.820312 121.953125 C 147.953125 121.867188 148.089844 121.785156 148.222656 121.695312 C 148.304688 121.644531 148.382812 121.59375 148.460938 121.539062 C 148.542969 121.484375 148.625 121.433594 148.707031 121.375 C 148.921875 121.230469 149.140625 121.074219 149.355469 120.914062 C 149.574219 120.75 149.792969 120.582031 150.011719 120.40625 C 150.234375 120.230469 150.449219 120.042969 150.667969 119.855469 L 150.671875 119.847656 C 150.886719 119.65625 151.105469 119.457031 151.324219 119.25 C 151.433594 119.148438 151.546875 119.042969 151.648438 118.933594 C 151.804688 118.773438 151.960938 118.613281 152.113281 118.441406 C 152.191406 118.363281 152.265625 118.289062 152.335938 118.203125 C 152.410156 118.125 152.484375 118.039062 152.554688 117.957031 C 152.710938 117.78125 152.867188 117.597656 153.019531 117.40625 C 153.160156 117.238281 153.296875 117.058594 153.433594 116.882812 C 153.554688 116.722656 153.671875 116.558594 153.792969 116.394531 C 153.898438 116.242188 154.011719 116.082031 154.121094 115.917969 C 154.199219 115.800781 154.273438 115.6875 154.347656 115.570312 C 154.382812 115.519531 154.414062 115.464844 154.449219 115.414062 C 154.515625 115.308594 154.585938 115.195312 154.652344 115.082031 C 154.753906 114.914062 154.855469 114.742188 154.957031 114.566406 C 159.550781 106.398438 158.785156 107.34375 161.199219 104.601562 C 163 102.554688 165.03125 98.171875 166.246094 93.609375 L 166.246094 93.605469 C 166.652344 92.058594 166.96875 90.5 167.148438 88.996094 C 167.867188 83.0625 165.800781 79.882812 161.902344 79.253906 C 159.464844 78.859375 157.113281 76.695312 154.730469 75.222656 C 148.226562 70.644531 142.90625 69.332031 142.90625 69.332031 C 140.253906 68.300781 138.109375 68.066406 136.378906 68.316406 C 136.273438 68.332031 136.171875 68.351562 136.070312 68.371094 C 135.980469 68.382812 135.898438 68.402344 135.808594 68.421875 C 134.5 68.707031 133.453125 69.269531 132.613281 69.964844 C 132.507812 70.046875 132.410156 70.132812 132.316406 70.214844 C 132.257812 70.269531 132.195312 70.332031 132.136719 70.390625 C 132.085938 70.433594 132.035156 70.488281 131.988281 70.535156 C 131.832031 70.691406 131.691406 70.84375 131.5625 71.003906 C 131.429688 71.15625 131.308594 71.308594 131.199219 71.464844 C 131.1875 71.472656 131.183594 71.480469 131.179688 71.492188 C 131.097656 71.59375 131.027344 71.699219 130.960938 71.800781 C 130.875 71.921875 130.796875 72.046875 130.722656 72.167969 C 129.796875 73.683594 129.507812 75.058594 129.507812 75.058594 C 128.367188 74.46875 127.320312 74.023438 126.363281 73.703125 C 126.339844 73.691406 126.3125 73.683594 126.289062 73.679688 C 126.175781 73.640625 126.070312 73.605469 125.960938 73.574219 C 125.746094 73.511719 125.535156 73.449219 125.332031 73.398438 C 125.230469 73.375 125.140625 73.347656 125.039062 73.328125 C 124.976562 73.308594 124.914062 73.292969 124.855469 73.285156 C 124.722656 73.253906 124.585938 73.230469 124.457031 73.207031 C 124.347656 73.183594 124.238281 73.164062 124.128906 73.148438 C 124.03125 73.136719 123.933594 73.121094 123.835938 73.109375 C 123.75 73.097656 123.667969 73.085938 123.585938 73.082031 C 123.503906 73.070312 123.417969 73.0625 123.335938 73.058594 C 123.238281 73.050781 123.140625 73.042969 123.046875 73.039062 C 122.90625 73.03125 122.769531 73.027344 122.632812 73.027344 C 120.402344 73.027344 118.871094 73.894531 117.828125 74.976562 C 117.652344 75.15625 117.492188 75.34375 117.34375 75.535156 C 117.191406 75.722656 117.058594 75.910156 116.9375 76.109375 C 116.753906 76.394531 116.589844 76.683594 116.457031 76.964844 C 116.363281 77.144531 116.28125 77.328125 116.210938 77.5 C 116.140625 77.671875 116.078125 77.839844 116.027344 77.996094 C 115.917969 78.308594 115.839844 78.574219 115.792969 78.78125 C 115.765625 78.878906 115.746094 78.964844 115.730469 79.027344 C 115.710938 79.125 115.703125 79.183594 115.703125 79.183594 C 115.703125 79.183594 113.347656 82.761719 110.777344 84.0625 C 110.765625 84.070312 110.75 84.078125 110.738281 84.082031 C 110.621094 84.125 110.511719 84.183594 110.402344 84.238281 C 107.027344 86.035156 106.257812 92.015625 103.25 94.375 C 100.132812 96.816406 99.863281 100.589844 103.351562 105.441406 C 104.78125 107.425781 106.605469 109.386719 108.488281 111.082031 C 108.535156 111.128906 108.578125 111.164062 108.625 111.207031 C 109.164062 111.691406 109.699219 112.152344 110.238281 112.585938 C 112.394531 114.332031 114.507812 115.65625 116.101562 116.226562 C 119.542969 117.460938 118.417969 117.003906 126.386719 121.929688 C 131.328125 124.984375 136.238281 125.167969 139.253906 124.875 C 139.253906 124.875 126.167969 127.71875 121.398438 125.460938 C 117.996094 123.847656 112.964844 121.640625 108.289062 118.59375 C 108.28125 118.589844 108.269531 118.578125 108.261719 118.574219 C 107.6875 118.199219 107.117188 117.8125 106.558594 117.414062 C 106.167969 117.136719 105.789062 116.851562 105.410156 116.5625 C 105.382812 116.539062 105.359375 116.527344 105.34375 116.511719 C 105.324219 116.496094 105.304688 116.484375 105.296875 116.480469 C 105.285156 116.472656 105.28125 116.464844 105.28125 116.464844 C 104.472656 115.84375 103.691406 115.1875 102.949219 114.507812 C 97.617188 109.605469 95.078125 99.964844 95.457031 92.746094 C 95.664062 92.890625 95.863281 93.019531 96.050781 93.136719 C 96.558594 93.457031 96.988281 93.691406 97.265625 93.890625 C 97.320312 93.925781 97.375 93.960938 97.414062 93.996094 C 97.484375 94.054688 97.554688 94.082031 97.632812 94.082031 C 97.667969 94.082031 97.699219 94.078125 97.734375 94.066406 C 97.765625 94.058594 97.800781 94.042969 97.835938 94.023438 C 98.050781 93.917969 98.289062 93.648438 98.53125 93.246094 C 98.578125 93.160156 98.628906 93.070312 98.675781 92.980469 C 98.945312 92.484375 99.21875 91.828125 99.464844 91.066406 C 99.539062 90.851562 99.605469 90.632812 99.671875 90.398438 C 99.800781 89.96875 99.917969 89.507812 100.027344 89.027344 C 100.175781 88.359375 100.304688 87.652344 100.410156 86.914062 C 100.457031 86.589844 100.492188 86.273438 100.535156 85.953125 C 100.589844 85.53125 100.636719 85.101562 100.695312 84.667969 C 100.71875 84.457031 100.746094 84.246094 100.773438 84.035156 C 100.773438 84.023438 100.773438 84.011719 100.777344 84.003906 C 100.800781 83.800781 100.828125 83.601562 100.855469 83.394531 C 100.886719 83.183594 100.914062 82.972656 100.945312 82.761719 C 100.976562 82.546875 101.007812 82.339844 101.039062 82.132812 C 101.0625 81.992188 101.085938 81.855469 101.109375 81.71875 C 101.144531 81.535156 101.179688 81.347656 101.21875 81.164062 C 101.21875 81.15625 101.21875 81.152344 101.222656 81.140625 C 101.28125 80.832031 101.347656 80.523438 101.421875 80.222656 C 101.464844 80.046875 101.511719 79.871094 101.5625 79.691406 C 101.566406 79.667969 101.574219 79.648438 101.578125 79.625 C 101.585938 79.59375 101.597656 79.566406 101.605469 79.535156 C 101.636719 79.425781 101.671875 79.320312 101.703125 79.210938 C 101.730469 79.117188 101.765625 79.023438 101.796875 78.929688 C 101.8125 78.878906 101.828125 78.828125 101.847656 78.78125 C 101.882812 78.679688 101.917969 78.574219 101.960938 78.472656 C 102.003906 78.355469 102.050781 78.238281 102.101562 78.121094 C 102.152344 77.996094 102.203125 77.875 102.257812 77.75 C 102.316406 77.628906 102.371094 77.507812 102.4375 77.386719 C 102.488281 77.28125 102.542969 77.179688 102.601562 77.074219 C 102.660156 76.964844 102.726562 76.855469 102.792969 76.75 C 102.851562 76.640625 102.921875 76.539062 102.988281 76.433594 C 102.992188 76.429688 102.996094 76.429688 102.996094 76.425781 C 103.035156 76.371094 103.070312 76.320312 103.109375 76.265625 C 103.128906 76.238281 103.140625 76.210938 103.164062 76.1875 C 103.183594 76.164062 103.203125 76.136719 103.222656 76.113281 C 103.238281 76.078125 103.261719 76.054688 103.28125 76.023438 C 103.324219 75.964844 103.371094 75.90625 103.417969 75.851562 C 103.425781 75.84375 103.4375 75.832031 103.441406 75.824219 C 103.445312 75.8125 103.453125 75.808594 103.464844 75.800781 C 103.492188 75.761719 103.523438 75.722656 103.558594 75.683594 C 103.589844 75.644531 103.621094 75.601562 103.65625 75.566406 C 103.679688 75.539062 103.707031 75.503906 103.734375 75.476562 C 103.742188 75.464844 103.75 75.457031 103.757812 75.445312 C 103.820312 75.382812 103.878906 75.320312 103.945312 75.253906 C 103.964844 75.230469 103.988281 75.210938 104.011719 75.1875 C 104.089844 75.101562 104.175781 75.023438 104.253906 74.949219 C 104.570312 74.65625 104.898438 74.382812 105.230469 74.117188 L 105.234375 74.117188 C 105.238281 74.113281 105.242188 74.105469 105.25 74.105469 C 105.917969 73.574219 106.605469 73.109375 107.253906 72.6875 C 107.40625 72.589844 107.554688 72.492188 107.707031 72.402344 C 109.246094 71.445312 110.507812 70.785156 110.75 70.351562 C 110.765625 70.328125 110.773438 70.308594 110.785156 70.285156 C 110.820312 70.179688 110.789062 70.089844 110.675781 70.011719 C 110.675781 70.011719 110.339844 69.777344 109.710938 69.332031 C 109.550781 69.21875 109.378906 69.09375 109.183594 68.957031 C 109.117188 68.917969 109.046875 68.863281 108.976562 68.8125 C 108.699219 68.621094 108.390625 68.402344 108.054688 68.164062 C 107.945312 68.085938 107.828125 68 107.707031 67.917969 C 113.75 62.695312 125.492188 59.335938 125.492188 59.335938 C 125.492188 59.335938 137.402344 56.601562 145.214844 58.246094 C 144.960938 58.773438 144.734375 59.246094 144.535156 59.648438 C 144.4375 59.847656 144.34375 60.039062 144.261719 60.210938 C 144.050781 60.640625 143.894531 60.96875 143.78125 61.1875 C 143.746094 61.277344 143.707031 61.339844 143.683594 61.390625 C 143.683594 61.398438 143.679688 61.398438 143.679688 61.398438 C 143.65625 61.449219 143.636719 61.480469 143.628906 61.5 C 143.621094 61.507812 143.621094 61.511719 143.621094 61.511719 C 143.609375 61.539062 143.597656 61.5625 143.59375 61.585938 C 143.558594 61.707031 143.609375 61.792969 143.730469 61.859375 C 143.730469 61.859375 143.730469 61.859375 143.734375 61.859375 C 143.804688 61.898438 143.898438 61.929688 144.019531 61.964844 L 144.023438 61.964844 C 144.105469 61.980469 144.191406 62 144.289062 62.007812 C 144.289062 62.007812 144.289062 62.007812 144.296875 62.007812 C 144.394531 62.023438 144.5 62.03125 144.617188 62.046875 C 144.679688 62.050781 144.738281 62.054688 144.804688 62.0625 C 144.929688 62.070312 145.066406 62.078125 145.207031 62.085938 C 145.421875 62.09375 145.65625 62.101562 145.898438 62.113281 C 146.140625 62.121094 146.402344 62.132812 146.671875 62.140625 C 146.671875 62.140625 146.671875 62.140625 146.675781 62.140625 C 146.878906 62.144531 147.09375 62.152344 147.308594 62.167969 C 147.523438 62.175781 147.746094 62.191406 147.972656 62.207031 C 148.199219 62.222656 148.429688 62.242188 148.664062 62.261719 C 148.902344 62.285156 149.140625 62.308594 149.378906 62.335938 C 149.695312 62.378906 150.023438 62.417969 150.347656 62.476562 C 150.347656 62.476562 150.292969 62.882812 150.378906 62.480469 C 150.796875 62.546875 151.214844 62.628906 151.628906 62.734375 C 152.277344 62.894531 152.886719 63.128906 153.457031 63.425781 C 153.804688 63.605469 154.144531 63.808594 154.464844 64.03125 C 154.628906 64.144531 154.789062 64.261719 154.941406 64.382812 C 155.253906 64.625 155.558594 64.882812 155.851562 65.164062 C 157.46875 66.683594 158.8125 68.660156 160.207031 70.570312 C 160.398438 70.832031 160.582031 71.089844 160.773438 71.34375 C 161.28125 72.015625 161.792969 72.640625 162.304688 73.203125 C 164.480469 75.609375 166.515625 76.886719 166.820312 76.101562 C 166.863281 76 166.917969 75.878906 166.992188 75.746094 C 167.054688 75.644531 167.117188 75.535156 167.183594 75.410156 C 167.253906 75.289062 167.328125 75.160156 167.414062 75.019531 C 167.570312 74.738281 167.75 74.421875 167.933594 74.0625 C 171.753906 80.199219 174.183594 89.867188 171.882812 96.734375 " fill-opacity="1" fill-rule="nonzero"/><path fill="#d7b397" d="M 160.207031 70.566406 C 160.394531 70.824219 160.585938 71.085938 160.78125 71.34375 C 161.28125 72.011719 161.800781 72.636719 162.304688 73.199219 L 160.207031 70.566406 " fill-opacity="1" fill-rule="nonzero"/><path fill="#e2c4a7" d="M 154.855469 105.578125 C 147.835938 113.167969 141.480469 111.871094 139.539062 111.222656 C 136.777344 115.433594 132.660156 116.464844 129.285156 116.464844 C 126.082031 116.464844 123.550781 115.535156 123.5 115.511719 C 123.132812 115.378906 122.953125 114.96875 123.09375 114.609375 C 123.226562 114.246094 123.632812 114.070312 123.992188 114.203125 C 124.402344 114.351562 133.972656 117.859375 138.652344 110.003906 C 138.839844 109.691406 139.230469 109.574219 139.558594 109.726562 C 139.824219 109.855469 146.308594 112.753906 153.828125 104.628906 C 154.089844 104.34375 154.535156 104.324219 154.820312 104.585938 C 155.105469 104.851562 155.117188 105.296875 154.855469 105.578125 Z M 142.238281 100.011719 C 142.851562 100.703125 142.234375 100.957031 141.402344 101.640625 C 140.375 102.484375 140.511719 102.371094 139.984375 104.171875 C 139.453125 105.964844 138.835938 106.792969 138.835938 106.792969 C 138.835938 106.792969 138.761719 107.074219 138.492188 107.292969 C 138.386719 107.386719 138.238281 107.460938 138.058594 107.507812 C 137.871094 107.554688 137.707031 107.558594 137.574219 107.53125 C 137.230469 107.46875 137.035156 107.253906 137.035156 107.253906 C 137.035156 107.253906 136.097656 106.828125 134.761719 105.511719 C 133.429688 104.199219 133.601562 104.234375 132.292969 103.988281 C 131.398438 103.820312 130.78125 103.847656 130.746094 103.316406 C 128.640625 106.171875 119.894531 116.804688 110.238281 112.585938 C 112.394531 114.328125 114.507812 115.65625 116.101562 116.226562 C 119.542969 117.460938 118.417969 117.003906 126.386719 121.929688 C 131.328125 124.984375 136.238281 125.167969 139.253906 124.871094 C 141.09375 124.691406 142.234375 124.328125 142.234375 124.328125 C 142.234375 124.328125 143.402344 124.09375 145.113281 123.359375 C 145.117188 123.359375 145.117188 123.355469 145.121094 123.355469 C 145.128906 123.355469 145.136719 123.351562 145.148438 123.34375 C 145.402344 123.238281 145.664062 123.117188 145.941406 122.980469 C 146.03125 122.9375 146.125 122.894531 146.222656 122.839844 C 146.730469 122.589844 147.265625 122.292969 147.820312 121.953125 C 147.953125 121.867188 148.089844 121.785156 148.222656 121.695312 C 148.304688 121.644531 148.382812 121.59375 148.460938 121.539062 C 148.542969 121.484375 148.625 121.433594 148.707031 121.375 C 148.921875 121.226562 149.140625 121.074219 149.355469 120.914062 C 149.574219 120.75 149.792969 120.582031 150.011719 120.40625 C 150.234375 120.226562 150.449219 120.046875 150.667969 119.855469 L 150.671875 119.851562 C 150.886719 119.660156 151.105469 119.457031 151.324219 119.25 C 151.433594 119.148438 151.546875 119.039062 151.648438 118.933594 C 151.804688 118.773438 151.960938 118.609375 152.113281 118.441406 C 152.191406 118.363281 152.265625 118.289062 152.335938 118.203125 C 152.410156 118.125 152.484375 118.042969 152.554688 117.957031 C 152.710938 117.78125 152.867188 117.597656 153.019531 117.40625 C 153.160156 117.238281 153.296875 117.058594 153.433594 116.882812 C 153.554688 116.722656 153.671875 116.558594 153.792969 116.394531 C 153.898438 116.242188 154.011719 116.082031 154.121094 115.917969 C 154.199219 115.804688 154.273438 115.6875 154.347656 115.566406 C 154.378906 115.519531 154.414062 115.464844 154.449219 115.414062 C 154.515625 115.308594 154.585938 115.195312 154.652344 115.082031 C 154.753906 114.914062 154.855469 114.742188 154.957031 114.5625 C 159.550781 106.398438 158.785156 107.34375 161.199219 104.601562 C 163 102.554688 165.03125 98.171875 166.246094 93.609375 C 161.910156 106.949219 145.585938 101.324219 142.238281 100.011719 Z M 157.714844 81.816406 C 157.605469 81.765625 146.445312 77.378906 140.289062 89.179688 C 140.105469 89.523438 140.242188 89.945312 140.582031 90.128906 C 140.683594 90.179688 140.796875 90.207031 140.902344 90.207031 C 141.160156 90.207031 141.402344 90.066406 141.53125 89.828125 C 147.078125 79.183594 156.757812 82.941406 157.183594 83.113281 C 157.542969 83.257812 157.953125 83.085938 158.097656 82.730469 C 158.242188 82.371094 158.070312 81.957031 157.714844 81.816406 Z M 126.363281 73.703125 C 127.320312 74.023438 128.367188 74.46875 129.507812 75.054688 C 129.507812 75.054688 129.796875 73.683594 130.722656 72.167969 C 129.820312 73.644531 128 74.25 126.363281 73.703125 Z M 126.949219 93.03125 C 116.042969 85.402344 108.167969 94.453125 108.09375 94.542969 C 107.839844 94.839844 107.878906 95.28125 108.171875 95.53125 C 108.304688 95.640625 108.464844 95.699219 108.625 95.699219 C 108.828125 95.699219 109.023438 95.613281 109.160156 95.453125 C 109.449219 95.113281 116.273438 87.277344 126.148438 94.179688 C 126.464844 94.398438 126.90625 94.324219 127.125 94.007812 C 127.347656 93.6875 127.269531 93.253906 126.949219 93.03125 " fill-opacity="1" fill-rule="nonzero"/><path fill="#49332d" d="M 158.097656 82.730469 C 157.953125 83.085938 157.542969 83.257812 157.183594 83.113281 C 156.757812 82.9375 147.078125 79.183594 141.53125 89.828125 C 141.402344 90.066406 141.160156 90.207031 140.902344 90.207031 C 140.796875 90.207031 140.683594 90.179688 140.582031 90.128906 C 140.242188 89.945312 140.105469 89.523438 140.289062 89.179688 C 146.445312 77.378906 157.605469 81.765625 157.714844 81.816406 C 158.070312 81.957031 158.242188 82.371094 158.097656 82.730469 Z M 108.171875 95.53125 C 107.878906 95.28125 107.839844 94.839844 108.09375 94.542969 C 108.167969 94.449219 116.042969 85.402344 126.949219 93.027344 C 127.269531 93.253906 127.347656 93.6875 127.125 94.007812 C 126.90625 94.324219 126.464844 94.398438 126.148438 94.179688 C 116.273438 87.277344 109.449219 95.113281 109.160156 95.449219 C 109.023438 95.613281 108.828125 95.699219 108.625 95.699219 C 108.464844 95.699219 108.304688 95.640625 108.171875 95.53125 Z M 161.902344 79.253906 C 159.464844 78.859375 157.113281 76.699219 154.730469 75.226562 C 148.230469 70.644531 142.90625 69.332031 142.90625 69.332031 C 140.253906 68.300781 138.109375 68.066406 136.378906 68.316406 C 136.273438 68.332031 136.171875 68.351562 136.070312 68.371094 C 135.980469 68.382812 135.898438 68.402344 135.808594 68.421875 C 134.5 68.707031 133.453125 69.269531 132.613281 69.960938 C 132.507812 70.046875 132.410156 70.132812 132.316406 70.214844 C 132.257812 70.269531 132.195312 70.332031 132.136719 70.386719 C 132.085938 70.433594 132.035156 70.488281 131.988281 70.539062 C 131.832031 70.691406 131.691406 70.84375 131.5625 71.003906 C 131.429688 71.152344 131.308594 71.308594 131.199219 71.460938 C 131.1875 71.472656 131.183594 71.480469 131.179688 71.492188 C 131.097656 71.59375 131.027344 71.699219 130.960938 71.800781 C 130.875 71.921875 130.796875 72.046875 130.722656 72.167969 C 129.796875 73.683594 129.507812 75.058594 129.507812 75.058594 C 128.367188 74.46875 127.320312 74.023438 126.363281 73.703125 C 126.339844 73.691406 126.3125 73.683594 126.289062 73.679688 C 126.175781 73.640625 126.070312 73.609375 125.960938 73.574219 C 125.746094 73.511719 125.535156 73.449219 125.332031 73.398438 C 125.230469 73.375 125.140625 73.34375 125.039062 73.328125 C 124.976562 73.308594 124.914062 73.296875 124.855469 73.285156 C 124.722656 73.253906 124.585938 73.230469 124.457031 73.207031 C 124.347656 73.183594 124.238281 73.164062 124.128906 73.148438 C 124.03125 73.136719 123.933594 73.121094 123.835938 73.109375 C 123.75 73.097656 123.667969 73.085938 123.585938 73.078125 C 123.503906 73.070312 123.417969 73.0625 123.335938 73.058594 C 123.238281 73.050781 123.140625 73.042969 123.046875 73.039062 C 122.90625 73.03125 122.769531 73.027344 122.636719 73.027344 C 120.402344 73.027344 118.871094 73.890625 117.828125 74.976562 C 117.652344 75.152344 117.492188 75.339844 117.34375 75.535156 C 117.199219 75.71875 117.0625 75.914062 116.9375 76.109375 C 116.753906 76.394531 116.589844 76.683594 116.457031 76.964844 C 116.367188 77.144531 116.28125 77.328125 116.210938 77.5 C 116.140625 77.671875 116.078125 77.839844 116.023438 77.996094 C 115.917969 78.308594 115.839844 78.574219 115.792969 78.78125 C 115.765625 78.878906 115.746094 78.960938 115.730469 79.027344 C 115.710938 79.128906 115.703125 79.183594 115.703125 79.183594 C 115.703125 79.183594 113.347656 82.761719 110.78125 84.0625 C 110.765625 84.070312 110.75 84.078125 110.738281 84.078125 C 110.625 84.140625 110.511719 84.191406 110.402344 84.238281 C 107.027344 86.035156 106.257812 92.015625 103.25 94.375 C 100.132812 96.816406 99.863281 100.589844 103.351562 105.441406 C 104.78125 107.429688 106.605469 109.386719 108.488281 111.082031 C 108.535156 111.128906 108.578125 111.167969 108.625 111.207031 C 109.164062 111.6875 109.699219 112.152344 110.238281 112.585938 C 119.894531 116.804688 128.640625 106.171875 130.746094 103.316406 C 130.730469 103.183594 130.753906 103.015625 130.820312 102.800781 C 130.832031 102.753906 130.847656 102.707031 130.867188 102.65625 C 130.871094 102.640625 130.875 102.632812 130.875 102.632812 C 130.921875 102.488281 130.992188 102.324219 131.070312 102.140625 C 131.855469 100.363281 132.503906 100.609375 133.960938 100.152344 L 138.09375 99.085938 C 139.589844 98.78125 140.039062 98.25 141.585938 99.433594 C 141.707031 99.523438 141.820312 99.609375 141.914062 99.691406 C 141.941406 99.71875 141.96875 99.742188 141.992188 99.761719 C 142.089844 99.851562 142.175781 99.9375 142.238281 100.011719 C 145.585938 101.324219 161.910156 106.953125 166.246094 93.609375 L 166.246094 93.605469 C 166.652344 92.058594 166.96875 90.496094 167.148438 88.996094 C 167.867188 83.0625 165.800781 79.882812 161.902344 79.253906 " fill-opacity="1" fill-rule="nonzero"/><path fill="#191818" d="M 141.402344 101.640625 C 140.375 102.484375 140.511719 102.371094 139.984375 104.171875 C 139.453125 105.964844 138.835938 106.792969 138.835938 106.792969 C 138.835938 106.792969 138.761719 107.070312 138.496094 107.292969 C 138.386719 107.386719 138.238281 107.457031 138.058594 107.507812 C 137.871094 107.554688 137.710938 107.558594 137.574219 107.53125 C 137.234375 107.46875 137.035156 107.253906 137.035156 107.253906 C 137.035156 107.253906 136.097656 106.828125 134.761719 105.511719 C 133.429688 104.199219 133.601562 104.230469 132.296875 103.988281 C 131.398438 103.820312 130.78125 103.847656 130.746094 103.3125 C 130.730469 103.183594 130.753906 103.015625 130.820312 102.800781 C 130.832031 102.753906 130.847656 102.707031 130.867188 102.65625 C 130.871094 102.640625 130.875 102.632812 130.875 102.632812 C 130.921875 102.488281 130.992188 102.324219 131.070312 102.140625 C 131.855469 100.363281 132.503906 100.609375 133.964844 100.152344 L 138.09375 99.085938 C 139.59375 98.78125 140.039062 98.25 141.585938 99.433594 C 141.707031 99.523438 141.820312 99.609375 141.914062 99.695312 C 141.941406 99.714844 141.96875 99.738281 141.992188 99.761719 C 142.089844 99.851562 142.175781 99.9375 142.242188 100.011719 C 142.851562 100.703125 142.234375 100.957031 141.402344 101.640625 " fill-opacity="1" fill-rule="nonzero"/><path fill="#d7b397" d="M 154.859375 105.574219 C 147.835938 113.164062 141.480469 111.871094 139.539062 111.222656 C 136.78125 115.433594 132.660156 116.464844 129.289062 116.464844 C 126.082031 116.464844 123.550781 115.535156 123.5 115.511719 C 123.136719 115.375 122.953125 114.96875 123.09375 114.609375 C 123.230469 114.246094 123.636719 114.066406 123.996094 114.203125 C 124.402344 114.351562 133.972656 117.855469 138.652344 110 C 138.839844 109.6875 139.234375 109.570312 139.558594 109.726562 C 139.824219 109.851562 146.308594 112.753906 153.832031 104.625 C 154.09375 104.34375 154.535156 104.324219 154.820312 104.585938 C 155.105469 104.851562 155.121094 105.296875 154.859375 105.574219 " fill-opacity="1" fill-rule="nonzero"/><path fill="#c9a7a8" d="M 166.335938 67.3125 C 165.65625 68.351562 165.039062 69.039062 164.480469 69.679688 C 163.664062 70.617188 162.949219 71.46875 162.304688 73.203125 C 161.792969 72.640625 161.28125 72.015625 160.777344 71.347656 C 160.585938 71.089844 160.398438 70.832031 160.207031 70.570312 C 165.617188 64.71875 163.675781 52.445312 162.039062 45.433594 C 160.316406 38.09375 157.539062 45.730469 155.34375 52.667969 C 153.75 57.710938 153.484375 61.648438 153.457031 63.425781 C 152.886719 63.125 152.28125 62.890625 151.628906 62.734375 C 151.214844 62.628906 150.796875 62.546875 150.378906 62.480469 L 150.375 62.480469 C 150.429688 62.207031 150.542969 61.5625 150.78125 60.160156 C 150.910156 59.359375 151.082031 58.316406 151.308594 56.953125 C 152.496094 49.691406 154.542969 44.4375 158.714844 38.371094 C 162.882812 32.304688 164.632812 36.183594 165.886719 47.820312 C 167.136719 59.460938 168.011719 64.761719 166.335938 67.3125 " fill-opacity="1" fill-rule="nonzero"/><path fill="#49332d" d="M 167.933594 74.058594 C 167.75 74.421875 167.574219 74.738281 167.414062 75.019531 C 167.25 75.300781 167.105469 75.542969 166.992188 75.742188 C 166.917969 75.878906 166.863281 76 166.820312 76.101562 C 166.515625 76.886719 164.480469 75.605469 162.304688 73.203125 C 162.949219 71.46875 163.664062 70.617188 164.480469 69.679688 C 165.039062 69.039062 165.65625 68.351562 166.335938 67.3125 C 168.011719 64.761719 167.136719 59.460938 165.886719 47.820312 C 164.632812 36.183594 162.882812 32.304688 158.714844 38.371094 C 154.542969 44.4375 152.496094 49.691406 151.308594 56.953125 C 151.082031 58.316406 150.910156 59.359375 150.78125 60.160156 C 150.542969 61.5625 150.429688 62.207031 150.375 62.480469 C 150.367188 62.476562 150.359375 62.472656 150.351562 62.472656 C 150.023438 62.414062 149.695312 62.371094 149.378906 62.335938 C 148.417969 62.21875 147.492188 62.167969 146.679688 62.140625 C 146.671875 62.140625 146.671875 62.140625 146.671875 62.140625 C 146.402344 62.125 146.144531 62.117188 145.898438 62.109375 C 145.65625 62.101562 145.421875 62.09375 145.207031 62.082031 C 145.066406 62.074219 144.929688 62.0625 144.804688 62.058594 C 144.738281 62.054688 144.679688 62.050781 144.617188 62.046875 C 144.5 62.03125 144.394531 62.023438 144.296875 62.007812 C 144.292969 62.007812 144.292969 62.007812 144.292969 62.007812 C 144.191406 61.996094 144.105469 61.976562 144.023438 61.960938 C 144.019531 61.957031 144.019531 61.960938 144.019531 61.960938 C 143.898438 61.929688 143.804688 61.894531 143.734375 61.859375 C 143.730469 61.859375 143.730469 61.859375 143.730469 61.859375 C 143.613281 61.789062 143.566406 61.699219 143.59375 61.582031 C 143.601562 61.5625 143.609375 61.539062 143.625 61.515625 C 143.625 61.515625 143.625 61.507812 143.628906 61.5 C 143.636719 61.480469 143.65625 61.449219 143.679688 61.394531 C 143.679688 61.394531 143.683594 61.394531 143.683594 61.394531 C 143.707031 61.339844 143.746094 61.273438 143.78125 61.1875 C 143.894531 60.964844 144.054688 60.640625 144.261719 60.210938 C 144.34375 60.039062 144.4375 59.851562 144.535156 59.648438 C 144.734375 59.246094 144.960938 58.773438 145.214844 58.246094 C 146.585938 55.417969 148.761719 50.867188 151.464844 45.035156 C 156.195312 34.839844 163.601562 27.320312 165.699219 38.371094 C 167.796875 49.421875 168.726562 64.640625 169.019531 68.679688 C 169.1875 70.992188 168.5625 72.777344 167.933594 74.058594 " fill-opacity="1" fill-rule="nonzero"/><path fill="#d7b397" d="M 101.039062 82.132812 C 101.007812 82.335938 100.976562 82.546875 100.945312 82.761719 C 100.914062 82.972656 100.886719 83.183594 100.859375 83.394531 C 100.832031 83.597656 100.800781 83.800781 100.777344 84.007812 C 100.800781 83.804688 100.832031 83.597656 100.855469 83.394531 C 100.886719 83.183594 100.914062 82.96875 100.941406 82.761719 C 100.976562 82.550781 101.007812 82.335938 101.039062 82.132812 " fill-opacity="1" fill-rule="nonzero"/><path fill="#d7b397" d="M 102.257812 77.746094 C 102.203125 77.875 102.152344 77.996094 102.101562 78.121094 C 102.050781 78.238281 102.003906 78.355469 101.960938 78.472656 C 102.007812 78.355469 102.050781 78.238281 102.097656 78.117188 C 102.148438 77.996094 102.203125 77.867188 102.257812 77.746094 " fill-opacity="1" fill-rule="nonzero"/><path fill="#bb9698" d="M 160.207031 70.570312 C 158.816406 68.65625 157.46875 66.679688 155.851562 65.164062 C 155.558594 64.882812 155.253906 64.625 154.941406 64.382812 C 154.789062 64.261719 154.628906 64.144531 154.464844 64.03125 C 154.144531 63.804688 153.808594 63.601562 153.457031 63.421875 C 153.484375 61.648438 153.75 57.707031 155.34375 52.664062 C 157.539062 45.730469 160.320312 38.09375 162.039062 45.429688 C 163.675781 52.445312 165.617188 64.71875 160.207031 70.570312 " fill-opacity="1" fill-rule="nonzero"/><path fill="#49332d" d="M 110.785156 70.28125 C 110.777344 70.304688 110.765625 70.324219 110.753906 70.347656 C 110.507812 70.78125 109.25 71.441406 107.707031 72.398438 C 107.558594 72.488281 107.40625 72.585938 107.253906 72.683594 C 106.605469 73.105469 105.917969 73.574219 105.25 74.101562 C 105.25 74.101562 90.582031 61.101562 78.671875 57.71875 C 78.671875 57.71875 75.691406 56.617188 77.152344 61.582031 C 78.613281 66.542969 83.691406 82.355469 88.714844 83.070312 C 93.734375 83.777344 98.261719 84.800781 100.027344 89.023438 C 99.917969 89.503906 99.804688 89.964844 99.671875 90.394531 C 99.605469 90.625 99.535156 90.847656 99.464844 91.066406 C 99.21875 91.824219 98.949219 92.480469 98.675781 92.976562 C 98.628906 93.070312 98.578125 93.160156 98.53125 93.242188 C 98.289062 93.644531 98.050781 93.914062 97.835938 94.023438 C 97.804688 94.042969 97.765625 94.054688 97.734375 94.066406 C 97.699219 94.074219 97.667969 94.078125 97.636719 94.078125 C 97.554688 94.078125 97.484375 94.050781 97.417969 93.996094 C 97.375 93.957031 97.324219 93.925781 97.265625 93.886719 C 96.992188 93.691406 96.5625 93.453125 96.050781 93.136719 C 95.863281 93.019531 95.664062 92.886719 95.457031 92.742188 C 95.457031 92.742188 95.453125 92.742188 95.449219 92.738281 C 95.445312 92.738281 95.441406 92.734375 95.429688 92.730469 C 94.949219 92.480469 87.90625 88.824219 82.71875 80.414062 C 77.347656 71.707031 76.023438 64.464844 73.53125 58.3125 C 72.371094 55.445312 74.550781 54.414062 79.609375 55.488281 C 80.371094 55.648438 81.203125 55.855469 82.09375 56.117188 C 84.230469 56.734375 86.734375 57.636719 89.578125 58.828125 C 94.585938 60.921875 100.65625 63.921875 107.675781 67.894531 C 107.683594 67.902344 107.699219 67.910156 107.707031 67.917969 C 107.828125 68.003906 107.941406 68.085938 108.058594 68.160156 C 108.394531 68.398438 108.703125 68.621094 108.976562 68.808594 C 109.046875 68.863281 109.117188 68.914062 109.183594 68.957031 C 109.378906 69.101562 109.554688 69.222656 109.710938 69.328125 C 110.339844 69.773438 110.675781 70.007812 110.675781 70.007812 C 110.789062 70.085938 110.824219 70.175781 110.785156 70.28125 " fill-opacity="1" fill-rule="nonzero"/><path fill="#c9a7a8" d="M 105.25 74.101562 C 105.246094 74.101562 105.238281 74.109375 105.234375 74.117188 L 105.230469 74.117188 C 104.898438 74.382812 104.570312 74.652344 104.253906 74.949219 C 104.175781 75.023438 104.089844 75.101562 104.011719 75.183594 C 103.988281 75.210938 103.964844 75.230469 103.945312 75.25 C 103.878906 75.316406 103.820312 75.382812 103.757812 75.445312 C 103.75 75.457031 103.746094 75.460938 103.734375 75.476562 C 103.707031 75.503906 103.679688 75.539062 103.65625 75.566406 C 103.625 75.601562 103.589844 75.644531 103.558594 75.683594 C 103.527344 75.71875 103.492188 75.757812 103.460938 75.792969 C 103.457031 75.804688 103.445312 75.8125 103.441406 75.824219 C 103.4375 75.832031 103.429688 75.839844 103.417969 75.847656 C 103.371094 75.90625 103.324219 75.960938 103.28125 76.023438 C 103.257812 76.050781 103.242188 76.078125 103.21875 76.105469 C 103.199219 76.136719 103.179688 76.160156 103.164062 76.1875 C 103.144531 76.210938 103.128906 76.238281 103.109375 76.265625 C 103.074219 76.316406 103.035156 76.371094 102.996094 76.425781 C 102.996094 76.429688 102.992188 76.429688 102.988281 76.433594 C 102.921875 76.535156 102.851562 76.640625 102.792969 76.746094 C 102.726562 76.855469 102.660156 76.960938 102.601562 77.074219 C 102.601562 77.074219 93.851562 67.269531 86.222656 63.917969 C 78.589844 60.570312 84.429688 69.265625 86.921875 74.578125 C 89.414062 79.886719 95.238281 83.664062 100.773438 84.03125 C 100.746094 84.246094 100.71875 84.457031 100.695312 84.667969 C 100.640625 85.097656 100.59375 85.527344 100.535156 85.953125 C 100.492188 86.273438 100.457031 86.589844 100.410156 86.910156 C 100.308594 87.648438 100.175781 88.359375 100.027344 89.023438 C 98.261719 84.804688 93.734375 83.78125 88.714844 83.070312 C 83.691406 82.355469 78.613281 66.546875 77.152344 61.582031 C 75.691406 56.621094 78.667969 57.71875 78.667969 57.71875 C 90.582031 61.101562 105.25 74.101562 105.25 74.101562 " fill-opacity="1" fill-rule="nonzero"/><path fill="#bb9698" d="M 102.601562 77.074219 C 102.546875 77.175781 102.488281 77.28125 102.4375 77.386719 C 102.371094 77.507812 102.316406 77.625 102.257812 77.746094 C 102.203125 77.867188 102.148438 77.996094 102.097656 78.117188 C 102.050781 78.238281 102.007812 78.351562 101.960938 78.472656 C 101.917969 78.574219 101.882812 78.671875 101.847656 78.78125 C 101.832031 78.824219 101.8125 78.878906 101.796875 78.929688 C 101.765625 79.023438 101.730469 79.117188 101.703125 79.210938 C 101.671875 79.316406 101.636719 79.421875 101.605469 79.53125 C 101.597656 79.566406 101.585938 79.59375 101.578125 79.625 C 101.574219 79.648438 101.5625 79.671875 101.558594 79.695312 C 101.511719 79.867188 101.464844 80.046875 101.421875 80.222656 C 101.347656 80.523438 101.285156 80.832031 101.222656 81.140625 C 101.21875 81.148438 101.21875 81.152344 101.21875 81.164062 C 101.179688 81.34375 101.144531 81.53125 101.109375 81.71875 C 101.085938 81.855469 101.0625 81.988281 101.039062 82.128906 C 101.007812 82.335938 100.976562 82.550781 100.941406 82.761719 C 100.914062 82.96875 100.886719 83.179688 100.855469 83.390625 C 100.832031 83.597656 100.800781 83.804688 100.777344 84.003906 C 100.773438 84.007812 100.773438 84.023438 100.773438 84.03125 C 95.238281 83.660156 89.414062 79.886719 86.925781 74.578125 C 84.429688 69.265625 78.589844 60.566406 86.222656 63.917969 C 93.851562 67.269531 102.601562 77.074219 102.601562 77.074219 " fill-opacity="1" fill-rule="nonzero"/><path fill="#191818" d="M 154.859375 105.574219 C 147.835938 113.164062 141.480469 111.871094 139.539062 111.222656 C 136.78125 115.433594 132.660156 116.464844 129.289062 116.464844 C 126.082031 116.464844 123.550781 115.535156 123.5 115.511719 C 123.136719 115.375 122.953125 114.96875 123.09375 114.609375 C 123.230469 114.246094 123.636719 114.066406 123.996094 114.203125 C 124.402344 114.351562 133.972656 117.855469 138.652344 110 C 138.839844 109.6875 139.234375 109.570312 139.558594 109.726562 C 139.824219 109.851562 146.308594 112.753906 153.832031 104.625 C 154.09375 104.34375 154.535156 104.324219 154.820312 104.585938 C 155.105469 104.851562 155.121094 105.296875 154.859375 105.574219 " fill-opacity="1" fill-rule="nonzero"/><path fill="#d7b397" d="M 110.238281 112.585938 C 109.699219 112.152344 109.164062 111.6875 108.625 111.207031 C 108.578125 111.164062 108.535156 111.128906 108.492188 111.082031 L 110.238281 112.585938 " fill-opacity="1" fill-rule="nonzero"/><path fill="#d7b397" d="M 130.746094 103.3125 C 130.730469 103.183594 130.753906 103.015625 130.820312 102.800781 L 130.746094 103.3125 " fill-opacity="1" fill-rule="nonzero"/><path fill="#191818" d="M 127.125 94.007812 C 126.90625 94.324219 126.464844 94.398438 126.148438 94.179688 C 116.273438 87.277344 109.449219 95.113281 109.160156 95.449219 C 109.023438 95.613281 108.828125 95.699219 108.625 95.699219 C 108.464844 95.699219 108.304688 95.640625 108.171875 95.53125 C 107.878906 95.28125 107.839844 94.839844 108.09375 94.542969 C 108.167969 94.449219 116.042969 85.402344 126.949219 93.03125 C 127.269531 93.253906 127.347656 93.6875 127.125 94.007812 " fill-opacity="1" fill-rule="nonzero"/><path fill="#191818" d="M 158.097656 82.730469 C 157.953125 83.085938 157.542969 83.257812 157.183594 83.113281 C 156.757812 82.941406 147.078125 79.183594 141.53125 89.828125 C 141.402344 90.066406 141.160156 90.207031 140.902344 90.207031 C 140.796875 90.207031 140.683594 90.179688 140.582031 90.128906 C 140.242188 89.945312 140.105469 89.523438 140.289062 89.179688 C 146.445312 77.378906 157.605469 81.765625 157.714844 81.8125 C 158.070312 81.960938 158.242188 82.371094 158.097656 82.730469 " fill-opacity="1" fill-rule="nonzero"/><path fill="#d7b397" d="M 172.5625 144.808594 C 172.148438 146.09375 171.511719 145.742188 169.757812 142.664062 C 165.4375 135.070312 158.546875 133.550781 149.175781 133.082031 C 139.808594 132.617188 134.609375 135.535156 127.25 131.210938 C 121.972656 128.109375 112.960938 121.871094 108.289062 118.589844 C 112.964844 121.636719 117.996094 123.847656 121.398438 125.460938 C 126.167969 127.71875 139.253906 124.871094 139.253906 124.871094 C 141.09375 124.691406 142.234375 124.324219 142.234375 124.324219 C 142.234375 124.324219 143.402344 124.089844 145.113281 123.359375 C 145.117188 123.359375 145.117188 123.351562 145.121094 123.351562 C 145.128906 123.351562 145.136719 123.347656 145.152344 123.34375 C 145.898438 123.121094 158.039062 119.394531 161.027344 115.242188 C 162.722656 112.882812 165.089844 109.753906 167.289062 106.1875 C 167.289062 106.1875 166.957031 120.980469 168.125 126.332031 C 168.910156 129.933594 170.542969 132.382812 172.5625 144.808594 " fill-opacity="1" fill-rule="nonzero"/><path fill="#49332d" d="M 151.539062 304.589844 C 138.226562 304.589844 142.199219 297.113281 138.929688 290.800781 C 136.742188 286.589844 135.707031 284.980469 135.1875 279.273438 C 135.183594 279.226562 135.175781 279.175781 135.171875 279.128906 C 134.925781 276.320312 134.800781 272.527344 134.722656 266.96875 C 134.492188 249.914062 134.722656 235.425781 131.921875 226.3125 C 131.394531 224.597656 131.089844 223.203125 130.988281 222.105469 C 130.535156 217.390625 133.808594 218.414062 138.929688 224.679688 C 145.234375 232.386719 146.636719 231.6875 148.039062 228.882812 C 149.4375 226.078125 149.671875 234.257812 151.308594 231.453125 C 152.941406 228.648438 155.511719 232.386719 156.445312 236.59375 C 156.917969 238.714844 159.046875 238.933594 161.738281 237.578125 C 161.386719 238.824219 161.097656 240.050781 160.882812 241.265625 C 158.082031 257.15625 154.8125 290.101562 160.882812 289.167969 C 166.957031 288.234375 169.058594 288.464844 171.628906 295.945312 C 174.195312 303.421875 164.855469 304.589844 151.539062 304.589844 " fill-opacity="1" fill-rule="nonzero"/><path fill="#49332d" d="M 120.242188 306.226562 C 104.128906 307.394531 91.28125 308.09375 91.75 304.589844 C 92.214844 301.085938 93.851562 296.410156 101.558594 292.671875 C 103.246094 291.855469 105.664062 291.085938 108.421875 290.109375 C 108.425781 290.109375 108.425781 290.109375 108.425781 290.109375 C 111.886719 289.988281 115.109375 290.0625 118.25 290.136719 C 120.765625 290.191406 123.238281 290.253906 125.730469 290.21875 C 134.492188 290.101562 137.644531 294.777344 139.277344 299.449219 C 140.914062 304.121094 136.359375 305.058594 120.242188 306.226562 " fill-opacity="1" fill-rule="nonzero"/><path fill="#e2c4a7" d="M 161.738281 237.582031 C 159.046875 238.933594 156.917969 238.714844 156.445312 236.59375 C 155.511719 232.386719 152.941406 228.652344 151.308594 231.453125 C 149.671875 234.257812 149.4375 226.078125 148.039062 228.882812 C 146.636719 231.6875 145.234375 232.386719 138.929688 224.679688 C 133.808594 218.414062 130.535156 217.390625 130.988281 222.109375 C 129.265625 214.84375 128.652344 207.621094 127.5625 219.769531 C 126.476562 231.921875 123.511719 232.078125 112.460938 229.898438 C 101.40625 227.714844 105.761719 230.988281 105.761719 230.988281 C 105.761719 230.988281 132.390625 236.59375 132.390625 261.363281 C 132.390625 280.714844 118.277344 286.660156 108.425781 290.113281 C 108.425781 290.113281 108.425781 290.113281 108.421875 290.113281 C 105.664062 291.085938 103.246094 291.855469 101.558594 292.671875 C 93.851562 296.414062 92.214844 301.085938 91.75 304.589844 C 91.75 304.589844 90.332031 300.847656 87.160156 298.554688 C 86.574219 298.132812 85.917969 297.757812 85.210938 297.464844 C 84.300781 297.089844 82.605469 296.632812 80.410156 295.929688 C 74.902344 294.171875 66.25 290.90625 59.027344 283.734375 C 57.144531 281.863281 55.363281 279.734375 53.757812 277.292969 C 51.65625 274.097656 49.851562 270.378906 48.539062 266.035156 C 40.832031 240.566406 37.5625 197.105469 54.144531 172.804688 C 70.726562 148.503906 89.414062 141.960938 97.820312 139.15625 C 106.21875 136.359375 109.652344 132.144531 106.558594 117.414062 C 107.117188 117.8125 107.6875 118.199219 108.261719 118.574219 C 108.269531 118.578125 108.28125 118.585938 108.289062 118.59375 C 112.960938 121.871094 121.972656 128.113281 127.25 131.214844 C 134.609375 135.535156 139.808594 132.617188 149.175781 133.082031 C 158.546875 133.550781 165.4375 135.070312 169.757812 142.664062 C 171.511719 145.742188 172.152344 146.09375 172.5625 144.808594 C 173.542969 150.828125 174.605469 159.191406 175.714844 171.167969 C 178.839844 205.046875 165.9375 222.578125 161.738281 237.582031 " fill-opacity="1" fill-rule="nonzero"/><path fill="#d7b397" d="M 135.1875 279.273438 C 132.484375 282.289062 126.554688 287.90625 118.25 290.136719 C 115.109375 290.0625 111.886719 289.988281 108.425781 290.109375 C 118.277344 286.65625 132.386719 280.714844 132.386719 261.363281 C 132.386719 236.59375 105.761719 230.988281 105.761719 230.988281 C 105.761719 230.988281 101.402344 227.714844 112.460938 229.898438 C 123.511719 232.074219 126.476562 231.921875 127.5625 219.769531 C 128.652344 207.621094 129.261719 214.84375 130.988281 222.105469 C 131.089844 223.203125 131.394531 224.597656 131.921875 226.3125 C 134.722656 235.425781 134.492188 249.914062 134.722656 266.96875 C 134.800781 272.527344 134.925781 276.320312 135.171875 279.128906 C 135.175781 279.175781 135.183594 279.226562 135.1875 279.273438 " fill-opacity="1" fill-rule="nonzero"/><path fill="#191818" d="M 184.59375 86.074219 C 183.660156 86.695312 180.390625 85.914062 178.753906 87.242188 C 177.121094 88.566406 176.339844 90.355469 176.339844 90.355469 C 176.339844 90.355469 176.242188 90.175781 176.097656 89.863281 L 176.097656 89.859375 C 175.953125 89.542969 175.761719 89.089844 175.597656 88.546875 C 174.992188 86.550781 174.707031 83.410156 178.054688 81.789062 C 178.054688 81.789062 181.011719 83.65625 183.03125 84.59375 C 183.410156 84.769531 183.738281 84.910156 184.007812 85.023438 C 184.007812 85.023438 184.019531 85.023438 184.03125 85.027344 C 185.1875 85.523438 185.347656 85.570312 184.59375 86.074219 " fill-opacity="1" fill-rule="nonzero"/><path fill="#49332d" d="M 215.21875 84.007812 C 215.078125 84.140625 214.90625 84.207031 214.730469 84.207031 C 214.542969 84.207031 214.363281 84.132812 214.222656 83.988281 C 207.496094 76.996094 196.609375 81.363281 196.496094 81.40625 C 196.140625 81.554688 195.730469 81.382812 195.585938 81.023438 C 195.433594 80.667969 195.609375 80.257812 195.960938 80.113281 C 196.082031 80.0625 207.855469 75.34375 215.238281 83.019531 C 215.503906 83.296875 215.492188 83.742188 215.21875 84.007812 Z M 245.804688 76.0625 C 243.003906 67.34375 234.90625 60.175781 217.464844 59.402344 C 216.539062 59.359375 215.632812 59.351562 214.746094 59.382812 L 214.738281 59.382812 C 198.890625 59.886719 189.035156 70.960938 186.011719 75.757812 C 182.824219 80.816406 178.054688 81.789062 178.054688 81.789062 C 178.054688 81.789062 181.011719 83.660156 183.03125 84.59375 C 183.410156 84.769531 183.738281 84.910156 184.007812 85.023438 C 184.007812 85.023438 184.019531 85.023438 184.03125 85.027344 C 184.488281 85.128906 191.933594 86.84375 196.910156 92.578125 C 202.050781 98.496094 203.453125 104.101562 214.148438 105.820312 C 224.84375 107.535156 237.398438 98.65625 245.804688 93.046875 C 254.214844 87.4375 248.609375 84.789062 245.804688 76.0625 " fill-opacity="1" fill-rule="nonzero"/><path fill="#191818" d="M 204.195312 111.113281 C 202.648438 109.429688 197.503906 107.902344 193 108.871094 C 195.214844 107.691406 197.554688 107.136719 199.890625 107.421875 L 199.90625 107.421875 C 205.585938 109.0625 206.179688 112.441406 206.179688 112.441406 C 206.179688 112.441406 206.410156 113.53125 204.195312 111.113281 " fill-opacity="1" fill-rule="nonzero"/><path fill="#cc7588" d="M 199.890625 107.421875 C 197.554688 107.136719 195.214844 107.691406 193 108.871094 C 189.417969 110.773438 186.152344 114.308594 183.71875 118.5625 C 182.609375 120.503906 181.667969 122.589844 180.953125 124.746094 C 177.683594 134.558594 165.070312 129.183594 169.195312 116.253906 C 170.980469 110.667969 174.179688 107.332031 177.242188 105.34375 C 178.246094 104.695312 179.230469 104.1875 180.144531 103.792969 C 180.164062 103.785156 180.179688 103.78125 180.199219 103.773438 C 182.9375 102.601562 185.050781 102.445312 185.050781 102.445312 C 185.476562 102.699219 185.914062 102.945312 186.355469 103.175781 C 186.234375 103.21875 186.113281 103.261719 185.988281 103.308594 C 179.050781 105.945312 173.15625 111.570312 172.148438 119.191406 C 172.082031 119.683594 172.035156 120.175781 172.011719 120.667969 C 172.003906 120.839844 172.003906 121.019531 172.105469 121.15625 C 172.246094 121.339844 172.535156 121.34375 172.738281 121.226562 C 172.9375 121.109375 173.066406 120.902344 173.179688 120.703125 C 174.199219 118.921875 174.707031 116.917969 175.554688 115.0625 C 176.328125 113.359375 177.464844 111.761719 178.703125 110.371094 C 181.183594 107.566406 184.617188 105.21875 188.28125 104.140625 C 191.289062 105.523438 194.410156 106.457031 197.070312 106.832031 C 198.125 106.984375 199.0625 107.183594 199.890625 107.421875 " fill-opacity="1" fill-rule="nonzero"/><path fill="#c66d7c" d="M 188.28125 104.140625 C 184.617188 105.21875 181.183594 107.566406 178.703125 110.371094 C 177.464844 111.761719 176.328125 113.359375 175.554688 115.0625 C 174.707031 116.917969 174.199219 118.921875 173.179688 120.703125 C 173.066406 120.902344 172.9375 121.109375 172.738281 121.226562 C 172.535156 121.34375 172.246094 121.339844 172.105469 121.15625 C 172.003906 121.019531 172.003906 120.839844 172.011719 120.667969 C 172.035156 120.175781 172.082031 119.683594 172.148438 119.191406 C 173.15625 111.570312 179.050781 105.945312 185.988281 103.308594 C 186.113281 103.261719 186.234375 103.21875 186.355469 103.175781 C 186.984375 103.523438 187.628906 103.839844 188.28125 104.140625 " fill-opacity="1" fill-rule="nonzero"/><path fill="#191818" d="M 185.050781 102.445312 C 185.050781 102.445312 182.9375 102.601562 180.195312 103.769531 C 180.179688 103.78125 180.164062 103.785156 180.144531 103.796875 C 180 102.738281 179.628906 101.097656 178.773438 99.511719 C 176.839844 95.921875 175.300781 93.796875 176.097656 89.863281 C 176.242188 90.175781 176.339844 90.355469 176.339844 90.355469 C 176.0625 95.207031 180.039062 99.453125 185.050781 102.445312 " fill-opacity="1" fill-rule="nonzero"/><path fill="#d7b397" d="M 180.144531 103.796875 C 179.230469 104.1875 178.246094 104.695312 177.238281 105.347656 C 169.945312 97.242188 175.59375 88.546875 175.59375 88.546875 C 175.757812 89.089844 175.949219 89.542969 176.09375 89.859375 L 176.09375 89.863281 C 175.300781 93.792969 176.839844 95.921875 178.773438 99.511719 C 179.628906 101.097656 180 102.738281 180.144531 103.796875 " fill-opacity="1" fill-rule="nonzero"/><path fill="#49332d" d="M 230.109375 279.9375 C 230.105469 279.960938 230.105469 279.976562 230.105469 279.976562 C 230.082031 281.34375 230.03125 282.648438 229.957031 283.867188 C 229.339844 293.796875 229.921875 299.988281 228.753906 301.160156 C 227.585938 302.328125 219.996094 307.234375 213.925781 306.414062 C 212.019531 306.160156 211.183594 305.808594 210.734375 305.453125 C 210.734375 305.453125 210.734375 305.453125 210.730469 305.449219 C 210.660156 305.261719 208.945312 300.769531 210.734375 297.339844 C 212.4375 294.066406 206.90625 296.59375 207.136719 303.859375 C 206.855469 303.851562 206.554688 303.847656 206.210938 303.847656 C 202.652344 303.847656 199.523438 302.949219 197.578125 300.933594 C 197.671875 299.773438 198.035156 298.03125 199.171875 295.929688 C 201.097656 292.378906 198.050781 293.3125 196.035156 298.449219 C 195.550781 297.160156 195.378906 295.617188 195.589844 293.796875 C 196.285156 287.742188 200.183594 284.554688 206.144531 283.730469 C 207.195312 283.585938 208.3125 283.519531 209.484375 283.519531 C 217.3125 283.519531 220.230469 282.347656 215.089844 281.414062 C 209.953125 280.480469 209.566406 280.480469 210.457031 276.390625 C 211.183594 273.082031 210.863281 274.207031 205.769531 271.855469 C 204.398438 258.359375 199.949219 243.890625 193.371094 219.222656 C 190.941406 210.109375 189.699219 202.214844 189.234375 195.179688 C 190.34375 192.945312 191.945312 191.460938 193.640625 195.699219 C 196.757812 203.488281 198.191406 204.109375 201.207031 203.175781 C 204.230469 202.242188 204.144531 202.59375 206.210938 203.507812 C 208.28125 204.425781 209.523438 202.867188 209.835938 204.890625 C 210.148438 206.914062 213.328125 207.078125 219.210938 207.464844 C 219.652344 207.492188 220.074219 207.5625 220.496094 207.671875 L 220.5 207.671875 C 223.65625 213.121094 227.179688 220.445312 226.652344 225.21875 C 225.71875 233.628906 223.957031 232.460938 226.707031 245.546875 C 229.113281 257.011719 230.273438 270.175781 230.109375 279.9375 " fill-opacity="1" fill-rule="nonzero"/><path fill="#3f2a27" d="M 209.484375 283.519531 C 208.3125 283.519531 207.195312 283.585938 206.144531 283.730469 C 206.304688 279.703125 206.167969 275.820312 205.769531 271.855469 C 210.863281 274.207031 211.183594 273.082031 210.457031 276.390625 C 209.566406 280.480469 209.953125 280.480469 215.089844 281.414062 C 220.230469 282.347656 217.3125 283.519531 209.484375 283.519531 " fill-opacity="1" fill-rule="nonzero"/><path fill="#d7b397" d="M 202.828125 137.128906 C 200.21875 138.222656 197.550781 140.347656 195.132812 143.925781 C 195.683594 131.804688 191.558594 127.578125 191.558594 127.578125 C 192.9375 128.050781 194.542969 128.320312 196.40625 128.277344 C 208.433594 128.015625 214.625 130.003906 218.480469 132.457031 C 222.332031 134.910156 210.070312 134.089844 202.828125 137.128906 " fill-opacity="1" fill-rule="nonzero"/><path fill="#49332d" d="M 274.613281 192.996094 C 269.652344 205.15625 265.890625 210.480469 264.949219 220.804688 C 264.886719 221.449219 264.839844 222.117188 264.804688 222.804688 C 264.179688 234.488281 260.285156 247.882812 256.394531 265.019531 C 255.242188 270.085938 254.488281 273.839844 254.003906 276.609375 C 253.394531 276.582031 252.742188 276.460938 252.03125 276.238281 C 244.71875 273.898438 242.222656 275.300781 245.804688 278.414062 C 249.386719 281.53125 245.183594 280.128906 239.734375 280.910156 C 234.28125 281.6875 238.644531 283.402344 246.425781 283.085938 C 249.601562 282.960938 251.691406 283.40625 253.167969 284.261719 C 254.136719 284.820312 254.84375 285.5625 255.417969 286.4375 L 255.421875 286.441406 C 256.113281 287.496094 256.621094 288.738281 257.167969 290.097656 C 258.882812 294.304688 259.820312 301.472656 257.167969 302.714844 C 256.710938 302.929688 256.253906 303.148438 255.792969 303.359375 C 254.679688 298.117188 250.910156 295.300781 252.464844 298.144531 C 253.558594 300.136719 253.808594 302.628906 253.839844 304.128906 C 252.152344 304.671875 250.285156 304.875 247.984375 304.167969 C 247.179688 303.921875 246.519531 303.761719 245.96875 303.667969 C 245.355469 297.574219 241.902344 293.976562 243.316406 298.144531 C 244.085938 300.433594 244.054688 302.332031 243.839844 303.617188 C 243.136719 303.738281 242.585938 303.980469 241.753906 304.117188 C 239.886719 304.429688 231.476562 303.339844 231.011719 300.847656 C 230.542969 298.355469 229.921875 287.605469 231.945312 272.03125 C 232.230469 269.84375 232.378906 267.566406 232.425781 265.25 C 232.730469 251.085938 229.273438 235.160156 230.078125 224.984375 C 230.265625 222.609375 230.847656 220.289062 231.65625 218.09375 C 234.886719 209.324219 241.753906 202.554688 241.753906 202.554688 C 241.753906 202.554688 243.191406 199.75 245.589844 202.554688 C 247.984375 205.359375 248.761719 203.957031 252.191406 201.304688 C 255.613281 198.660156 255.300781 198.347656 261.222656 198.347656 C 267.136719 198.347656 277.011719 187.117188 274.613281 192.996094 " fill-opacity="1" fill-rule="nonzero"/><path fill="#3f2a27" d="M 255.792969 303.359375 C 255.15625 303.648438 254.511719 303.917969 253.839844 304.128906 C 253.808594 302.628906 253.558594 300.136719 252.464844 298.144531 C 250.910156 295.300781 254.679688 298.117188 255.792969 303.359375 " fill-opacity="1" fill-rule="nonzero"/><path fill="#3f2a27" d="M 245.96875 303.667969 C 245.027344 303.503906 244.390625 303.523438 243.839844 303.617188 C 244.054688 302.332031 244.085938 300.433594 243.316406 298.144531 C 241.902344 293.976562 245.355469 297.574219 245.96875 303.667969 " fill-opacity="1" fill-rule="nonzero"/><path fill="#3f2a27" d="M 210.734375 297.339844 C 208.945312 300.769531 210.660156 305.261719 210.730469 305.449219 C 209.828125 304.730469 210.492188 303.972656 207.136719 303.859375 C 206.90625 296.59375 212.4375 294.066406 210.734375 297.339844 " fill-opacity="1" fill-rule="nonzero"/><path fill="#3f2a27" d="M 199.171875 295.929688 C 198.035156 298.03125 197.671875 299.773438 197.578125 300.933594 C 196.917969 300.242188 196.386719 299.417969 196.035156 298.453125 L 196.035156 298.449219 C 198.050781 293.3125 201.097656 292.378906 199.171875 295.929688 " fill-opacity="1" fill-rule="nonzero"/><path fill="#3f2a27" d="M 232.425781 265.25 C 231.234375 267.058594 230.175781 279.179688 230.109375 279.9375 C 230.273438 270.175781 229.113281 257.011719 226.707031 245.546875 C 223.957031 232.460938 225.71875 233.628906 226.652344 225.21875 C 227.179688 220.445312 223.65625 213.121094 220.5 207.671875 C 224.992188 208.800781 228.554688 214.0625 231.65625 218.09375 C 230.847656 220.289062 230.265625 222.609375 230.078125 224.984375 C 229.273438 235.160156 232.730469 251.085938 232.425781 265.25 " fill-opacity="1" fill-rule="nonzero"/><path fill="#e2c4a7" d="M 315.089844 268.109375 C 310.816406 278.007812 304.878906 284.589844 302.5625 286.90625 C 302.5625 286.90625 299.839844 280.128906 285.511719 279.976562 C 280.988281 279.921875 277.503906 280.886719 274.863281 282.222656 C 274.863281 282.222656 257.167969 271.71875 263.710938 243.210938 C 263.710938 243.210938 265.660156 231.175781 273.832031 224.402344 C 282.007812 217.625 274.652344 220.777344 269.976562 225.21875 C 265.308594 229.660156 265.324219 231.878906 267.304688 222.53125 C 268.6875 215.980469 267.027344 216.71875 264.949219 220.804688 C 265.894531 210.480469 269.652344 205.15625 274.613281 192.996094 C 277.011719 187.117188 267.136719 198.347656 261.222656 198.347656 C 255.304688 198.347656 255.613281 198.660156 252.191406 201.304688 C 248.761719 203.957031 247.988281 205.359375 245.589844 202.554688 C 243.195312 199.75 241.757812 202.554688 241.757812 202.554688 C 241.757812 202.554688 234.890625 209.324219 231.65625 218.09375 C 228.554688 214.0625 224.988281 208.800781 220.5 207.671875 L 220.496094 207.671875 C 220.078125 207.5625 219.652344 207.492188 219.210938 207.464844 C 213.328125 207.078125 210.148438 206.914062 209.835938 204.890625 C 209.523438 202.867188 208.28125 204.421875 206.210938 203.507812 C 204.144531 202.59375 204.230469 202.242188 201.207031 203.175781 C 198.191406 204.109375 196.757812 203.488281 193.640625 195.699219 C 191.945312 191.460938 190.34375 192.945312 189.238281 195.179688 C 188.046875 177.074219 192.023438 164.632812 194.269531 151.617188 C 194.757812 148.753906 195.03125 146.203125 195.132812 143.929688 C 195.132812 143.929688 195.132812 143.929688 195.132812 143.921875 C 197.550781 140.347656 200.21875 138.222656 202.828125 137.128906 C 210.070312 134.089844 222.332031 134.910156 218.480469 132.457031 C 214.625 130.003906 208.433594 128.015625 196.40625 128.277344 C 194.542969 128.320312 192.9375 128.054688 191.558594 127.574219 C 186.578125 125.863281 184.53125 121.386719 183.71875 118.5625 C 186.152344 114.308594 189.417969 110.773438 193 108.867188 C 197.503906 107.902344 202.648438 109.429688 204.195312 111.113281 C 206.414062 113.527344 206.179688 112.441406 206.179688 112.441406 C 206.179688 112.441406 205.585938 109.058594 199.90625 107.421875 L 199.890625 107.421875 C 199.0625 107.183594 198.125 106.980469 197.070312 106.832031 C 194.414062 106.457031 191.289062 105.523438 188.285156 104.140625 C 187.628906 103.84375 186.984375 103.523438 186.355469 103.175781 C 185.914062 102.945312 185.476562 102.703125 185.050781 102.445312 C 180.039062 99.453125 176.0625 95.207031 176.339844 90.355469 C 176.339844 90.355469 177.121094 88.5625 178.753906 87.242188 C 180.390625 85.914062 183.660156 86.695312 184.59375 86.074219 C 185.34375 85.570312 185.1875 85.523438 184.03125 85.027344 C 184.492188 85.128906 191.933594 86.84375 196.914062 92.578125 C 202.050781 98.496094 203.453125 104.101562 214.148438 105.816406 C 224.84375 107.53125 237.398438 98.652344 245.804688 93.046875 C 254.214844 87.4375 248.609375 84.789062 245.804688 76.0625 C 243.003906 67.34375 234.90625 60.175781 217.464844 59.398438 C 216.539062 59.355469 215.632812 59.351562 214.746094 59.382812 C 214.882812 59.355469 216.242188 59.125 218.347656 58.925781 C 221.359375 58.648438 225.898438 58.441406 230.570312 59.039062 C 233.144531 59.367188 235.757812 59.9375 238.179688 60.875 C 241.589844 62.203125 243.636719 63.535156 245.300781 64.566406 C 245.304688 64.574219 245.308594 64.578125 245.308594 64.578125 C 245.308594 64.578125 250.59375 69.484375 251.527344 71.820312 C 251.609375 72.015625 251.6875 72.183594 251.78125 72.335938 C 251.789062 72.351562 251.804688 72.371094 251.8125 72.390625 C 252.804688 74.070312 253.9375 76.574219 254.773438 78.550781 C 255.886719 81.175781 257.160156 83.679688 259.351562 85.023438 C 260.535156 85.746094 261.460938 86.617188 262.179688 87.5 C 262.183594 87.503906 262.183594 87.503906 262.183594 87.503906 C 263.300781 88.863281 264.042969 90.519531 264.453125 91.605469 C 264.453125 91.613281 264.453125 91.613281 264.453125 91.617188 C 264.460938 91.707031 264.472656 91.792969 264.484375 91.886719 C 264.523438 92.167969 264.59375 92.460938 264.683594 92.785156 C 264.722656 92.929688 264.769531 93.078125 264.824219 93.234375 C 264.855469 93.335938 264.894531 93.4375 264.933594 93.546875 C 264.980469 93.671875 265.027344 93.804688 265.082031 93.9375 C 265.503906 95.007812 266.132812 96.289062 266.960938 97.828125 C 266.960938 97.832031 266.960938 97.832031 266.960938 97.832031 C 267.070312 98.535156 267.230469 99.253906 267.445312 99.976562 C 268.78125 104.429688 269.9375 118.625 274.886719 133.007812 L 274.894531 133.011719 C 275.761719 143.441406 276.058594 151.21875 277.503906 150.527344 C 279.464844 149.59375 278.347656 152.082031 278.972656 162.210938 C 279.59375 172.332031 278.347656 173.894531 287.535156 177.472656 C 292.460938 179.394531 297.882812 184.273438 301.839844 188.480469 L 301.847656 188.484375 C 309.621094 201.785156 316.953125 219.417969 319.378906 237.835938 C 320.953125 249.789062 318.570312 260.046875 315.089844 268.109375 " fill-opacity="1" fill-rule="nonzero"/><path fill="#bb9698" d="M 278.269531 69.601562 C 275.820312 74.976562 274.417969 80.117188 268.925781 81.933594 C 263.464844 83.742188 262.019531 87.25 262.175781 87.5 C 261.457031 86.617188 260.53125 85.746094 259.351562 85.023438 C 257.160156 83.683594 255.882812 81.175781 254.773438 78.550781 C 256.300781 76.152344 259.324219 72.765625 265.199219 69.601562 C 275.835938 63.875 280.722656 64.226562 278.269531 69.601562 " fill-opacity="1" fill-rule="nonzero"/><path fill="#49332d" d="M 283.5625 70.613281 C 278.117188 82.605469 276.480469 87.316406 271.808594 88.546875 C 267.789062 89.605469 266.304688 93.449219 266.960938 97.828125 C 266.136719 96.289062 265.503906 95.007812 265.082031 93.9375 C 265.027344 93.804688 264.980469 93.671875 264.933594 93.546875 C 264.894531 93.4375 264.855469 93.335938 264.824219 93.234375 C 264.769531 93.078125 264.722656 92.929688 264.683594 92.785156 C 264.59375 92.460938 264.523438 92.167969 264.484375 91.886719 C 264.472656 91.792969 264.460938 91.703125 264.453125 91.617188 C 264.453125 91.613281 264.453125 91.613281 264.453125 91.605469 C 264.375 90.671875 264.621094 89.972656 265.214844 89.394531 C 265.25 89.359375 265.292969 89.316406 265.339844 89.28125 C 265.429688 89.203125 265.523438 89.128906 265.621094 89.058594 C 265.769531 88.953125 265.933594 88.847656 266.109375 88.75 C 266.886719 88.324219 267.9375 87.960938 269.277344 87.59375 C 275.234375 85.957031 273.015625 85.722656 275.585938 82.699219 C 278.15625 79.675781 286.753906 60.566406 284.808594 60.605469 C 282.867188 60.644531 271.847656 63.058594 262.972656 68.199219 C 255.765625 72.371094 253.332031 73.695312 252.171875 72.792969 L 252.167969 72.792969 C 251.964844 72.453125 251.75 72.125 251.527344 71.820312 C 250.59375 69.484375 245.3125 64.578125 245.3125 64.578125 C 248.523438 66.585938 250.296875 67.46875 257.796875 65.007812 C 269.160156 61.269531 270.410156 60.417969 279.050781 59.363281 C 287.691406 58.304688 289.015625 58.617188 283.5625 70.613281 " fill-opacity="1" fill-rule="nonzero"/><path fill="#eaccb2" d="M 301.84375 188.480469 C 297.882812 184.273438 292.460938 179.390625 287.535156 177.472656 C 278.347656 173.890625 279.59375 172.332031 278.972656 162.210938 C 278.347656 152.082031 279.46875 149.589844 277.503906 150.527344 C 276.054688 151.21875 275.761719 143.441406 274.894531 133.011719 C 275.742188 135.484375 276.707031 137.964844 277.804688 140.398438 C 285.277344 156.988281 281.074219 160.960938 291.585938 173.578125 C 294.824219 177.472656 298.382812 182.542969 301.84375 188.480469 " fill-opacity="1" fill-rule="nonzero"/><path fill="#3f2a27" d="M 253.167969 284.261719 C 251.691406 283.40625 249.601562 282.960938 246.425781 283.085938 C 238.644531 283.402344 234.28125 281.6875 239.734375 280.910156 C 245.183594 280.128906 249.386719 281.53125 245.804688 278.414062 C 242.222656 275.300781 244.71875 273.898438 252.03125 276.238281 C 252.742188 276.460938 253.394531 276.582031 254.003906 276.609375 C 252.835938 283.214844 253.167969 284.261719 253.167969 284.261719 " fill-opacity="1" fill-rule="nonzero"/><path fill="#d7b397" d="M 263.710938 243.210938 C 257.167969 271.71875 274.859375 282.222656 274.859375 282.222656 C 269.121094 285.121094 267.300781 289.789062 267.300781 289.789062 C 267.300781 289.789062 259.117188 290.414062 255.421875 286.441406 L 255.417969 286.4375 C 254.84375 285.5625 254.136719 284.820312 253.167969 284.261719 C 253.167969 284.261719 252.835938 283.214844 254.003906 276.609375 C 254.488281 273.839844 255.242188 270.085938 256.394531 265.019531 C 260.285156 247.882812 264.179688 234.488281 264.804688 222.804688 C 264.839844 222.117188 264.886719 221.449219 264.949219 220.804688 C 267.027344 216.71875 268.683594 215.980469 267.300781 222.53125 C 265.324219 231.878906 265.308594 229.660156 269.976562 225.21875 C 274.648438 220.777344 282.007812 217.625 273.832031 224.402344 C 265.660156 231.175781 263.710938 243.210938 263.710938 243.210938 " fill-opacity="1" fill-rule="nonzero"/><path fill="#49332d" d="M 301.160156 298.144531 C 297.1875 301.980469 294.386719 302.640625 289.09375 300.691406 C 288.90625 300.621094 288.722656 300.558594 288.546875 300.511719 C 287.792969 296.972656 288.722656 291.839844 287.378906 293.996094 C 286.128906 295.996094 286.25 298.667969 286.417969 300.148438 C 282.953125 300.027344 281.035156 302.335938 278.191406 300.691406 C 277.855469 300.496094 277.542969 300.359375 277.246094 300.265625 C 276.902344 299.101562 276.515625 296.960938 277.257812 294.65625 C 278.273438 291.496094 274.292969 294.03125 274.929688 300.328125 C 273.484375 300.773438 272.082031 301.589844 269.242188 299.835938 C 264.570312 296.953125 267.300781 289.789062 267.300781 289.789062 C 267.300781 289.789062 269.121094 285.121094 274.859375 282.222656 C 277.503906 280.886719 280.988281 279.921875 285.511719 279.976562 C 299.835938 280.128906 302.5625 286.90625 302.5625 286.90625 C 302.5625 286.90625 305.128906 294.304688 301.160156 298.144531 " fill-opacity="1" fill-rule="nonzero"/><path fill="#3f2a27" d="M 288.546875 300.507812 C 287.769531 300.273438 287.066406 300.164062 286.417969 300.148438 C 286.25 298.667969 286.128906 295.996094 287.378906 293.996094 C 288.726562 291.839844 287.796875 296.972656 288.546875 300.507812 " fill-opacity="1" fill-rule="nonzero"/><path fill="#3f2a27" d="M 277.257812 294.65625 C 276.515625 296.960938 276.902344 299.101562 277.246094 300.265625 C 276.351562 299.976562 275.636719 300.105469 274.929688 300.328125 C 274.296875 294.03125 278.277344 291.496094 277.257812 294.65625 " fill-opacity="1" fill-rule="nonzero"/><g clip-path="url(#f576e885d5)"><path fill="#3f2a27" d="M 315.089844 308.324219 C 302.796875 333.871094 253.503906 343.21875 229.957031 340.726562 C 206.414062 338.230469 167.175781 332.105469 164.992188 306.507812 C 162.8125 280.910156 186.792969 284.234375 190.0625 294.332031 C 193.332031 304.429688 209.835938 319.230469 237.550781 318.296875 C 265.269531 317.359375 285.980469 314.597656 301.160156 298.144531 C 305.132812 294.304688 302.5625 286.90625 302.5625 286.90625 C 304.878906 284.585938 310.816406 278.007812 315.089844 268.109375 C 315.089844 268.109375 327.386719 282.777344 315.089844 308.324219 " fill-opacity="1" fill-rule="nonzero"/></g><path fill="#3f2a27" d="M 246.273438 51.027344 C 242.898438 61.714844 245.132812 64.386719 245.300781 64.570312 C 243.636719 63.535156 241.589844 62.203125 238.175781 60.878906 C 235.757812 59.9375 233.140625 59.367188 230.566406 59.039062 C 231.777344 52.511719 237.484375 44.765625 242.886719 40.394531 C 244.734375 38.898438 245.777344 37.851562 246.34375 37.121094 L 246.347656 37.121094 C 251.40625 36.640625 249.015625 42.324219 246.273438 51.027344 " fill-opacity="1" fill-rule="nonzero"/><path fill="#bb9698" d="M 246.34375 37.121094 C 245.777344 37.851562 244.734375 38.898438 242.886719 40.394531 C 237.488281 44.765625 231.777344 52.511719 230.566406 59.042969 C 225.898438 58.441406 221.359375 58.648438 218.347656 58.929688 C 219.230469 58.457031 227.9375 44.25 240.316406 38.992188 C 242.992188 37.855469 244.945312 37.257812 246.34375 37.121094 " fill-opacity="1" fill-rule="nonzero"/><path fill="#c9a7a8" d="M 275.585938 82.699219 C 273.015625 85.722656 275.234375 85.957031 269.277344 87.59375 C 267.9375 87.960938 266.886719 88.320312 266.109375 88.753906 C 265.933594 88.847656 265.769531 88.953125 265.621094 89.0625 C 265.523438 89.132812 265.429688 89.203125 265.339844 89.28125 C 265.292969 89.316406 265.25 89.359375 265.214844 89.398438 C 264.621094 89.972656 264.375 90.671875 264.453125 91.605469 C 264.039062 90.519531 263.300781 88.863281 262.179688 87.503906 C 262.179688 87.503906 262.179688 87.503906 262.179688 87.5 C 262.019531 87.253906 263.464844 83.742188 268.925781 81.933594 C 274.417969 80.117188 275.820312 74.976562 278.269531 69.601562 C 280.722656 64.226562 275.835938 63.875 265.199219 69.601562 C 259.324219 72.765625 256.300781 76.152344 254.773438 78.550781 C 253.9375 76.574219 252.800781 74.074219 251.8125 72.390625 C 251.921875 72.554688 252.039062 72.691406 252.167969 72.792969 L 252.171875 72.792969 C 253.332031 73.695312 255.765625 72.371094 262.972656 68.199219 C 271.847656 63.058594 282.867188 60.644531 284.8125 60.605469 C 286.753906 60.566406 278.152344 79.675781 275.585938 82.699219 " fill-opacity="1" fill-rule="nonzero"/><path fill="#191818" d="M 215.21875 84.007812 C 215.078125 84.140625 214.90625 84.207031 214.730469 84.207031 C 214.542969 84.207031 214.363281 84.136719 214.222656 83.992188 C 207.496094 76.996094 196.605469 81.363281 196.496094 81.40625 C 196.140625 81.558594 195.730469 81.382812 195.582031 81.023438 C 195.433594 80.667969 195.605469 80.257812 195.960938 80.113281 C 196.082031 80.058594 207.855469 75.34375 215.238281 83.019531 C 215.503906 83.296875 215.492188 83.742188 215.21875 84.007812 " fill-opacity="1" fill-rule="nonzero"/><g clip-path="url(#eb0def36a1)"><path fill="#49332d" d="M 202.363281 323.417969 C 186.949219 345.382812 141.558594 354.960938 104.917969 341.117188 C 68.269531 327.269531 59.027344 283.734375 59.027344 283.734375 C 66.25 290.90625 74.902344 294.171875 80.410156 295.929688 C 102.101562 350.921875 172.90625 322.449219 181.363281 310.449219 C 189.816406 298.449219 217.78125 301.453125 202.363281 323.417969 " fill-opacity="1" fill-rule="nonzero"/></g></svg>