
<svg xmlns="http://www.w3.org/2000/svg" xmlns:xlink="http://www.w3.org/1999/xlink" width="500" zoomAndPan="magnify" viewBox="0 0 375 374.999991" height="500" preserveAspectRatio="xMidYMid meet" version="1.0"><defs><clipPath id="1fd6afb5d7"><path d="M 229.496094 152.382812 L 357.214844 152.382812 L 357.214844 356.242188 L 229.496094 356.242188 Z M 229.496094 152.382812 " clip-rule="nonzero"/></clipPath></defs><path fill="#896b48" d="M 173.046875 210.382812 L 173.046875 297.128906 L 59.25 260.351562 L 57.949219 220.59375 L 56.789062 185.171875 L 173.046875 210.382812 " fill-opacity="1" fill-rule="nonzero"/><path fill="#aa865d" d="M 57.949219 220.59375 L 30.925781 214.082031 L 56.789062 185.171875 Z M 57.949219 220.59375 " fill-opacity="1" fill-rule="nonzero"/><path fill="#9e7954" d="M 312.710938 253.054688 L 173.046875 297.128906 L 173.046875 210.382812 L 205.8125 251.578125 L 311.03125 224.152344 L 312.710938 253.054688 " fill-opacity="1" fill-rule="nonzero"/><path fill="#aa865d" d="M 338.332031 217.042969 L 311.035156 224.152344 L 205.8125 251.574219 L 173.046875 210.378906 L 308.527344 181.023438 L 338.332031 217.042969 " fill-opacity="1" fill-rule="nonzero"/><path fill="#d7b397" d="M 201.867188 141.316406 C 201.867188 141.316406 200.175781 142.21875 197.632812 143.964844 C 186.785156 151.425781 160.472656 174.277344 184.566406 207.886719 L 173.046875 210.382812 L 163.921875 208.398438 C 172.65625 182.808594 155.566406 169.4375 155.566406 169.4375 C 144.785156 160.859375 150.636719 160.246094 163.753906 164.871094 C 176.871094 169.496094 173.175781 158.210938 188.292969 147.667969 C 203.40625 137.121094 201.867188 141.316406 201.867188 141.316406 " fill-opacity="1" fill-rule="nonzero"/><path fill="#c9a7a8" d="M 54.328125 66.699219 C 53.09375 68.179688 47.921875 69.171875 41.886719 75.707031 C 37.371094 80.597656 34.097656 81.136719 30.824219 76.496094 C 33.601562 67.269531 36.371094 59.457031 38.441406 52.394531 C 40.140625 46.601562 41.824219 43.160156 43.605469 41.808594 C 44.398438 42.296875 45.160156 43.191406 45.832031 44.628906 C 49.644531 52.765625 55.554688 65.21875 54.328125 66.699219 " fill-opacity="1" fill-rule="nonzero"/><path fill="#c9a7a8" d="M 150.429688 78.363281 C 148.199219 80.398438 144.230469 85.082031 137.578125 79.695312 C 137.445312 79.589844 137.3125 79.480469 137.179688 79.382812 C 137.054688 79.28125 136.929688 79.191406 136.804688 79.09375 C 136.535156 78.894531 136.269531 78.710938 136.003906 78.539062 C 135.84375 78.445312 135.6875 78.339844 135.523438 78.242188 C 135.355469 78.140625 135.191406 78.046875 135.03125 77.949219 C 134.867188 77.851562 134.695312 77.761719 134.535156 77.675781 C 134.371094 77.585938 134.214844 77.503906 134.054688 77.421875 C 133.53125 77.164062 133.027344 76.933594 132.539062 76.734375 C 132.28125 76.632812 132.035156 76.535156 131.792969 76.4375 C 131.644531 76.386719 131.503906 76.335938 131.363281 76.28125 C 131.148438 76.203125 130.941406 76.128906 130.742188 76.0625 C 130.425781 75.949219 130.121094 75.847656 129.84375 75.75 C 129.628906 75.675781 129.421875 75.601562 129.230469 75.527344 C 129.042969 75.464844 128.875 75.394531 128.710938 75.328125 C 128.546875 75.253906 128.394531 75.1875 128.253906 75.113281 C 128.136719 75.054688 128.015625 74.988281 127.914062 74.921875 C 127.832031 74.871094 127.757812 74.816406 127.691406 74.765625 C 127.640625 74.726562 127.589844 74.6875 127.535156 74.640625 C 127.484375 74.597656 127.441406 74.542969 127.394531 74.5 C 127.359375 74.457031 127.320312 74.402344 127.285156 74.359375 C 127.226562 74.25 127.167969 74.136719 127.09375 74.027344 C 127.09375 74.019531 127.09375 74.011719 127.085938 74.003906 C 127.09375 73.996094 127.085938 73.996094 127.085938 73.992188 C 127.078125 73.972656 127.070312 73.964844 127.070312 73.953125 C 127.050781 73.886719 127.027344 73.820312 127.019531 73.753906 C 127.011719 73.730469 127.003906 73.714844 127.011719 73.695312 C 126.988281 73.605469 126.984375 73.507812 126.984375 73.402344 C 126.984375 73.25 126.996094 73.085938 127.027344 72.910156 C 127.0625 72.6875 127.128906 72.449219 127.21875 72.183594 C 127.285156 72 127.359375 71.808594 127.453125 71.59375 C 127.5 71.488281 127.550781 71.375 127.601562 71.265625 C 130.1875 65.84375 129.703125 60.410156 129.820312 48.941406 C 129.902344 41.667969 131.21875 39.433594 132.167969 38.765625 C 133.359375 39.640625 135.089844 42.949219 138.628906 49.4375 C 142.144531 55.882812 144.539062 60.566406 146.0625 64.25 C 148.292969 69.660156 148.632812 72.925781 147.867188 76.445312 C 147.347656 78.824219 148.765625 79.738281 150.429688 78.363281 " fill-opacity="1" fill-rule="nonzero"/><path fill="#e2c4a7" d="M 127.285156 74.359375 C 127.242188 74.308594 127.203125 74.25 127.179688 74.195312 C 127.167969 74.183594 127.167969 74.175781 127.167969 74.167969 C 127.136719 74.125 127.113281 74.074219 127.09375 74.027344 C 127.167969 74.136719 127.226562 74.25 127.285156 74.359375 " fill-opacity="1" fill-rule="nonzero"/><path fill="#e2c4a7" d="M 110.046875 135.851562 C 88.128906 136.710938 83.917969 126.253906 83.917969 126.253906 C 83.523438 126.691406 83.015625 127.210938 82.371094 127.816406 C 78.21875 131.757812 77.230469 135.734375 75.078125 132.871094 C 75.078125 132.871094 72.863281 131.292969 71.480469 126.210938 C 68.753906 131.613281 61.273438 139.671875 45.511719 134.742188 C 29.75 129.804688 19.28125 101.929688 42.925781 82.449219 C 66.574219 62.964844 116.820312 71.222656 128.519531 89.234375 C 140.222656 107.238281 131.96875 134.988281 110.046875 135.851562 Z M 95.445312 155.253906 C 94.792969 155.277344 94.15625 155.292969 93.539062 155.292969 C 86.164062 155.292969 80.84375 153.441406 77.710938 149.777344 C 76.121094 150.484375 72.425781 151.820312 67.195312 151.820312 C 65.25 151.820312 63.09375 151.636719 60.757812 151.164062 C 49.878906 148.957031 47.449219 141.105469 47.351562 140.765625 C 47.175781 140.179688 47.515625 139.566406 48.101562 139.390625 C 48.691406 139.21875 49.304688 139.554688 49.472656 140.136719 C 49.5625 140.417969 51.683594 147.054688 61.195312 148.988281 C 68.703125 150.503906 74.183594 148.816406 76.394531 147.914062 C 73.910156 143.570312 74.871094 138.960938 74.914062 138.738281 C 75.050781 138.140625 75.632812 137.761719 76.238281 137.886719 C 76.835938 138.019531 77.214844 138.613281 77.089844 139.210938 C 77.074219 139.265625 76.039062 144.355469 79.335938 148.277344 C 82.261719 151.746094 87.664062 153.347656 95.355469 153.035156 C 117.027344 152.164062 118.300781 139.019531 118.308594 138.886719 C 118.359375 138.28125 118.890625 137.820312 119.503906 137.863281 C 120.109375 137.917969 120.570312 138.449219 120.523438 139.0625 C 120.507812 139.210938 119.0625 154.300781 95.445312 155.253906 Z M 321.335938 119.734375 C 312.46875 87.914062 282.167969 65.714844 235.984375 54.984375 C 202.074219 47.105469 169.488281 55.792969 154.558594 60.964844 C 154.972656 71.382812 152.507812 76.652344 150.429688 78.363281 C 148.199219 80.398438 144.230469 85.082031 137.578125 79.695312 C 137.445312 79.589844 137.3125 79.480469 137.179688 79.382812 C 137.054688 79.28125 136.929688 79.191406 136.804688 79.09375 C 136.539062 78.894531 136.269531 78.710938 136.003906 78.539062 C 135.84375 78.445312 135.6875 78.339844 135.523438 78.246094 C 135.355469 78.140625 135.191406 78.042969 135.03125 77.949219 C 134.867188 77.851562 134.695312 77.761719 134.535156 77.675781 C 134.371094 77.585938 134.214844 77.503906 134.054688 77.421875 C 133.53125 77.164062 133.027344 76.933594 132.539062 76.734375 C 132.28125 76.628906 132.035156 76.535156 131.792969 76.4375 C 131.644531 76.386719 131.503906 76.335938 131.363281 76.285156 C 131.152344 76.203125 130.945312 76.128906 130.742188 76.0625 C 130.425781 75.949219 130.121094 75.847656 129.84375 75.75 C 129.628906 75.675781 129.421875 75.601562 129.230469 75.527344 C 129.042969 75.460938 128.875 75.394531 128.710938 75.328125 C 128.546875 75.253906 128.394531 75.1875 128.253906 75.113281 C 128.136719 75.054688 128.015625 74.988281 127.914062 74.921875 C 127.832031 74.867188 127.757812 74.816406 127.691406 74.765625 C 127.640625 74.726562 127.589844 74.683594 127.535156 74.640625 C 127.484375 74.59375 127.441406 74.542969 127.394531 74.5 C 127.359375 74.457031 127.324219 74.40625 127.285156 74.359375 C 127.242188 74.308594 127.203125 74.25 127.183594 74.195312 C 127.167969 74.183594 127.167969 74.175781 127.167969 74.167969 C 127.136719 74.121094 127.117188 74.070312 127.09375 74.027344 C 127.09375 74.019531 127.09375 74.011719 127.085938 74.003906 C 127.09375 73.996094 127.085938 73.996094 127.085938 73.988281 C 120.855469 62.679688 110.347656 60.882812 109.011719 60.699219 L 108.980469 60.699219 C 108.945312 60.691406 108.914062 60.691406 108.898438 60.691406 C 108.015625 60.625 107.066406 60.535156 106.054688 60.410156 C 93.738281 58.929688 75.019531 58.929688 66.394531 60.660156 C 59.019531 62.132812 58.082031 60.453125 57.964844 59.945312 C 58.0625 60.71875 58.253906 64.386719 54.328125 66.699219 C 53.09375 68.179688 47.921875 69.171875 41.886719 75.703125 C 37.371094 80.597656 34.097656 81.136719 30.824219 76.496094 C 26.328125 91.445312 21.808594 110.109375 20.210938 135.277344 C 17.625 175.976562 56.789062 185.171875 56.789062 185.171875 L 163.914062 208.402344 L 163.921875 208.402344 C 172.65625 182.8125 155.566406 169.441406 155.566406 169.441406 C 144.785156 160.863281 150.636719 160.25 163.753906 164.875 C 176.871094 169.5 173.175781 158.214844 188.292969 147.671875 C 203.40625 137.125 201.867188 141.320312 201.867188 141.320312 C 201.867188 141.320312 200.175781 142.222656 197.632812 143.96875 C 186.785156 151.429688 160.472656 174.28125 184.570312 207.890625 L 308.527344 181.027344 C 308.527344 181.027344 317.238281 169.183594 321.355469 152.390625 C 323.734375 142.703125 324.578125 131.375 321.335938 119.734375 " fill-opacity="1" fill-rule="nonzero"/><path fill="#49332d" d="M 132.167969 38.765625 C 131.21875 39.433594 129.902344 41.667969 129.820312 48.941406 C 129.703125 60.410156 130.1875 65.84375 127.601562 71.265625 C 127.550781 71.375 127.5 71.488281 127.457031 71.59375 C 127.359375 71.808594 127.285156 71.996094 127.21875 72.183594 C 127.128906 72.449219 127.0625 72.6875 127.027344 72.910156 C 126.996094 73.085938 126.984375 73.25 126.984375 73.40625 C 126.984375 73.507812 126.988281 73.605469 127.011719 73.695312 C 127.003906 73.714844 127.011719 73.730469 127.019531 73.753906 C 127.027344 73.820312 127.050781 73.882812 127.070312 73.953125 C 127.070312 73.964844 127.078125 73.972656 127.085938 73.988281 C 120.855469 62.683594 110.347656 60.882812 109.011719 60.699219 C 118.808594 61.402344 121.320312 58.457031 126.496094 48.082031 C 129.851562 41.355469 130.441406 37.492188 132.167969 38.765625 " fill-opacity="1" fill-rule="nonzero"/><path fill="#49332d" d="M 54.328125 66.703125 C 55.554688 65.222656 49.644531 52.765625 45.832031 44.625 C 45.160156 43.191406 44.398438 42.296875 43.605469 41.804688 C 47.507812 38.824219 51.898438 45.816406 57.949219 59.796875 C 57.949219 59.796875 57.957031 59.847656 57.964844 59.945312 C 58.0625 60.722656 58.253906 64.382812 54.328125 66.703125 " fill-opacity="1" fill-rule="nonzero"/><path fill="#d7b397" d="M 150.429688 78.363281 C 148.765625 79.738281 147.347656 78.820312 147.863281 76.449219 C 148.632812 72.925781 148.292969 69.660156 146.0625 64.253906 C 146.0625 64.253906 149.152344 62.835938 154.558594 60.964844 C 154.972656 71.386719 152.503906 76.652344 150.429688 78.363281 " fill-opacity="1" fill-rule="nonzero"/><g clip-path="url(#1fd6afb5d7)"><path fill="#49332d" d="M 357.171875 238.132812 C 355.695312 296.960938 299.164062 353.941406 261.109375 356.160156 C 223.054688 358.378906 217.382812 315.832031 255.691406 294 C 293.992188 272.171875 347.816406 243.058594 308.527344 181.027344 C 308.527344 181.027344 317.242188 169.179688 321.355469 152.386719 C 321.355469 152.386719 358.652344 179.300781 357.171875 238.132812 " fill-opacity="1" fill-rule="nonzero"/></g><path fill="#191818" d="M 83.917969 126.253906 C 83.523438 126.691406 83.015625 127.210938 82.371094 127.816406 C 78.21875 131.761719 77.230469 135.734375 75.078125 132.871094 C 75.078125 132.871094 72.863281 131.292969 71.480469 126.210938 C 70.089844 121.125 73.601562 123.066406 79.511719 123.433594 C 84.515625 123.746094 86.074219 123.84375 83.917969 126.253906 " fill-opacity="1" fill-rule="nonzero"/><path fill="#191818" d="M 120.523438 139.0625 C 120.507812 139.210938 119.0625 154.296875 95.445312 155.253906 C 94.792969 155.273438 94.15625 155.289062 93.539062 155.289062 C 86.164062 155.289062 80.84375 153.4375 77.710938 149.777344 C 76.121094 150.480469 72.425781 151.816406 67.191406 151.816406 C 65.25 151.816406 63.09375 151.632812 60.757812 151.160156 C 49.878906 148.953125 47.449219 141.101562 47.351562 140.761719 C 47.175781 140.175781 47.515625 139.566406 48.097656 139.386719 C 48.691406 139.214844 49.304688 139.550781 49.472656 140.132812 C 49.5625 140.414062 51.683594 147.050781 61.195312 148.984375 C 68.699219 150.5 74.183594 148.8125 76.394531 147.910156 C 73.910156 143.566406 74.871094 138.957031 74.914062 138.734375 C 75.046875 138.136719 75.632812 137.757812 76.238281 137.882812 C 76.835938 138.019531 77.214844 138.609375 77.089844 139.210938 C 77.074219 139.261719 76.039062 144.351562 79.335938 148.273438 C 82.261719 151.742188 87.664062 153.34375 95.355469 153.03125 C 117.027344 152.15625 118.300781 139.015625 118.308594 138.882812 C 118.359375 138.277344 118.890625 137.816406 119.503906 137.863281 C 120.109375 137.914062 120.566406 138.445312 120.523438 139.0625 " fill-opacity="1" fill-rule="nonzero"/><path fill="#49332d" d="M 114.148438 103.085938 C 110.355469 104.625 100.445312 108.265625 102.847656 108.945312 C 105.25 109.621094 109.070312 111.410156 112.707031 115.789062 C 116.335938 120.164062 111.96875 116.277344 111.96875 116.277344 C 106.542969 109.746094 95.710938 109.988281 97.925781 108.019531 C 100.144531 106.042969 113.195312 98.273438 113.195312 98.273438 C 116.777344 96.113281 117.570312 97.71875 114.738281 100.125 C 111.902344 102.53125 117.9375 101.546875 114.148438 103.085938 Z M 61.679688 106.503906 C 58.546875 107.339844 52.355469 110.398438 49.679688 113.628906 C 47 116.863281 45.792969 114.097656 52.265625 109.003906 C 58.726562 103.914062 55.960938 102.714844 50.507812 99.296875 C 45.054688 95.871094 46.472656 94.515625 49.679688 96.144531 C 49.679688 96.144531 60.855469 101.515625 64.089844 105.390625 C 64.089844 105.390625 64.828125 105.675781 61.679688 106.503906 Z M 128.519531 89.230469 C 116.824219 71.222656 66.574219 62.960938 42.925781 82.445312 C 19.28125 101.929688 29.75 129.804688 45.511719 134.742188 C 61.273438 139.671875 68.753906 131.613281 71.480469 126.210938 C 70.089844 121.125 73.601562 123.066406 79.511719 123.433594 C 84.515625 123.746094 86.074219 123.84375 83.917969 126.253906 C 83.917969 126.253906 88.128906 136.710938 110.046875 135.851562 C 131.972656 134.984375 140.226562 107.238281 128.519531 89.230469 " fill-opacity="1" fill-rule="nonzero"/><path fill="#191818" d="M 106.046875 108.410156 C 106.089844 106.597656 111.8125 104.011719 111.8125 104.011719 C 112.703125 103.660156 113.511719 103.34375 114.148438 103.085938 C 117.9375 101.546875 111.902344 102.53125 114.738281 100.125 C 117.566406 97.71875 116.777344 96.117188 113.195312 98.273438 C 113.195312 98.273438 108.476562 101.085938 104.234375 103.753906 C 97.0625 106.003906 93.792969 108.59375 98.964844 110.011719 C 104.136719 111.429688 104.566406 112.167969 110.507812 117.042969 C 116.453125 121.914062 117.683594 121.914062 114.976562 116.550781 C 112.265625 111.183594 106 110.21875 106.046875 108.410156 " fill-opacity="1" fill-rule="nonzero"/><path fill="#191818" d="M 64.089844 105.394531 C 61.308594 102.0625 52.679688 97.632812 50.300781 96.449219 C 43.171875 92.550781 44.40625 95.675781 50.59375 99.929688 C 56.78125 104.183594 55.582031 104.601562 49.394531 109.410156 C 43.203125 114.21875 43.574219 115.703125 45.328125 115.886719 C 46.605469 116.019531 47.917969 115.191406 48.542969 114.730469 C 48.644531 114.65625 48.757812 114.570312 48.875 114.46875 C 48.898438 114.449219 48.914062 114.433594 48.914062 114.433594 C 48.976562 114.378906 49.042969 114.316406 49.113281 114.25 L 52.515625 111.074219 C 55.503906 108.902344 59.398438 107.113281 61.679688 106.503906 C 64.828125 105.675781 64.089844 105.394531 64.089844 105.394531 " fill-opacity="1" fill-rule="nonzero"/></svg>